<?xml version="1.0" encoding="utf-8"?>
<!DOCTYPE svg PUBLIC "-//W3C//DTD SVG 1.0//EN" "http://www.w3.org/TR/2001/REC-SVG-20010904/DTD/svg10.dtd">
<svg version="1.0" xmlns="http://www.w3.org/2000/svg" width="157px" height="179px" viewBox="0 0 157 179" preserveAspectRatio="xMidYMid meet">
 <g fill="none" stroke="#1d0801" stroke-width="1">
  <path d="M55.5 137.6 c-2.1 -5 -3 -11.6 -1.6 -11.6 0.6 0 1.1 1.2 1.1 2.8 0 4.4 1.9 10.1 3.8 11.1 1.6 1 1.6 1 -0.1 1.1 -1.1 0 -2.3 -1.3 -3.2 -3.4z"/>
  <path d="M96.5 139 c-0.4 -0.6 -1 -2.3 -1.5 -3.8 -0.4 -1.5 -1.1 -3.5 -1.5 -4.4 -0.4 -1 -0.3 -1.8 0.3 -1.8 1.1 0 4.7 9.8 3.9 10.6 -0.3 0.3 -0.8 0 -1.2 -0.6z"/>
  <path d="M21.3 113.5 c0 -2.2 0.2 -3 0.4 -1.7 0.2 1.2 0.2 3 0 4 -0.3 0.9 -0.5 -0.1 -0.4 -2.3z"/>
  <path d="M102.7 112.5 c0.9 -1.9 1.8 -3.3 2.1 -3.1 0.4 0.5 -2.6 6.6 -3.3 6.6 -0.3 0 0.3 -1.6 1.2 -3.5z"/>
  <path d="M105.5 104.5 c1.1 -9.5 -4 -24.9 -10.6 -32.1 -1.1 -1.1 -1.6 -2.3 -1.3 -2.7 0.7 -0.7 6.4 5.6 6.4 7.2 0 0.6 0.4 1.1 0.9 1.1 0.5 0 1.9 2.4 3.1 5.3 2.7 6.1 3.7 16.7 2.1 21.7 l-1.1 3.5 0.5 -4z"/>
  <path d="M61 91.5 c-1.4 -0.8 -3.5 -1.4 -4.6 -1.5 -1.2 0 -3.3 -1.2 -4.7 -2.6 l-2.6 -2.5 -1.1 2.1 c-0.6 1.2 -0.9 2.8 -0.6 3.6 0.3 0.9 0.1 1.2 -0.4 0.9 -1.3 -0.8 -1.3 -2.6 0.2 -5.6 l1.2 -2.5 7.4 4.2 c6.8 3.9 9.2 5.5 8.1 5.4 -0.2 -0.1 -1.5 -0.7 -2.9 -1.5z"/>
  <path d="M61.3 84.2 c-5.5 -3.6 -6.8 -5.2 -1.8 -2.2 5.9 3.5 8.1 5 7 4.9 -0.6 0 -2.9 -1.2 -5.2 -2.7z"/>
  <path d="M51.3 77.4 l-2.8 -2.5 3.3 2.2 c1.7 1.3 3.2 2.4 3.2 2.6 0 0.8 -1.1 0.1 -3.7 -2.3z"/>
  <path d="M60.6 74.9 c-4.4 -2.8 -8.2 -4.6 -8.5 -4 -0.4 0.5 -1.1 -0.1 -1.8 -1.5 -1 -2.2 -1 -2.3 1.1 -1.2 3.8 2 18.6 11.1 18.6 11.5 0 0.8 -2.1 -0.2 -9.4 -4.8z"/>
  <path d="M84.2 69.4 c-5 -2.2 -8.1 -11.9 -5.2 -16.4 0.7 -1.1 1 -0.3 1 3 0 5.4 2.7 10.2 7.2 13 3.8 2.3 1.9 2.5 -3 0.4z"/>
  <path d="M92 59.1 c0 -2 -0.8 -3.5 -2.2 -4.5 -1.8 -1.3 -1.9 -1.6 -0.6 -1.6 0.9 0 2.4 0.7 3.2 1.6 1.8 1.7 2.2 7.4 0.6 7.4 -0.5 0 -1 -1.3 -1 -2.9z"/>
  <path d="M86.5 20.7 c-3.3 -2.4 -6 -4.9 -6.1 -5.7 0 -0.8 0.1 -1 0.3 -0.4 0.2 0.7 3.3 3.1 6.9 5.4 3.5 2.3 6.4 4.3 6.4 4.6 0 1 -1.8 0 -7.5 -3.9z"/>
  <path d="M91.6 13.2 c-3.9 -2.7 -7.2 -5.4 -7.4 -6.1 -0.2 -0.7 3 1.1 7.2 4 4.2 2.9 7.6 5.7 7.6 6.1 0 1.2 0.1 1.2 -7.4 -4z"/>
 </g>
 <g fill="none" stroke="#331e07" stroke-width="1">
  <path d="M59.3 162.3 c1.5 -0.2 3.7 -0.2 5 0 1.2 0.2 0 0.4 -2.8 0.4 -2.7 0 -3.8 -0.2 -2.2 -0.4z"/>
  <path d="M47.3 161.3 c0.9 -0.2 2.5 -0.2 3.5 0 0.9 0.3 0.1 0.5 -1.8 0.5 -1.9 0 -2.7 -0.2 -1.7 -0.5z"/>
  <path d="M27.8 160.3 c1.2 -0.2 3 -0.2 4 0 0.9 0.3 -0.1 0.5 -2.3 0.4 -2.2 0 -3 -0.2 -1.7 -0.4z"/>
  <path d="M79.1 148.3 c-0.1 -1.2 -0.7 -2.4 -1.3 -2.6 -1 -0.4 -1 -0.6 0 -0.6 1.5 -0.1 2.6 2.3 1.9 4.1 -0.3 0.7 -0.6 0.3 -0.6 -0.9z"/>
  <path d="M66.8 142.6 c-3.2 -0.7 -6.1 -1.6 -6.5 -2.1 -0.5 -0.4 0.1 -0.5 1.2 -0.1 1.1 0.4 4.1 1 6.8 1.3 2.6 0.3 4.7 1 4.7 1.4 0 0.5 -0.1 0.9 -0.2 0.8 -0.2 0 -2.9 -0.6 -6 -1.3z"/>
  <path d="M69.3 123.3 c0.9 -0.2 2.5 -0.2 3.5 0 0.9 0.3 0.1 0.5 -1.8 0.5 -1.9 0 -2.7 -0.2 -1.7 -0.5z"/>
  <path d="M44.3 120.3 c0.9 -0.2 2.5 -0.2 3.5 0 0.9 0.3 0.1 0.5 -1.8 0.5 -1.9 0 -2.7 -0.2 -1.7 -0.5z"/>
  <path d="M29.3 118.3 c0.9 -0.2 2.5 -0.2 3.5 0 0.9 0.3 0.1 0.5 -1.8 0.5 -1.9 0 -2.7 -0.2 -1.7 -0.5z"/>
  <path d="M48.3 93 c-2 -0.8 -2.1 -1.2 -1.2 -3.9 0.6 -1.6 1.8 -3.6 2.7 -4.3 1 -0.8 1.3 -0.9 0.9 -0.1 -0.8 1.3 2.9 5.3 5 5.3 0.7 0 1.3 0.5 1.3 1.1 0 1.1 -0.9 0.7 -5 -2.2 -2.5 -1.7 -2.6 -1.7 -3.7 0.7 -0.9 1.9 -0.8 2.4 0.2 2.4 0.8 0 1.7 0.5 2 1 0.7 1.2 0.7 1.2 -2.2 0z"/>
  <path d="M96.5 72 c-1.5 -1.7 -1.6 -2.3 -0.5 -3.3 1 -0.9 1.1 -0.9 0.5 0.1 -0.4 0.8 0 2.1 1.1 3.3 0.9 1 1.5 1.9 1.2 1.9 -0.3 0 -1.3 -0.9 -2.3 -2z"/>
 </g>
 <g fill="none" stroke="#462e0f" stroke-width="1">
  <path d="M119.5 168 c-2.5 -1.1 0.1 -1.1 3.5 0 2 0.6 2.1 0.8 0.5 0.8 -1.1 0 -2.9 -0.3 -4 -0.8z"/>
  <path d="M66 163 c0 -1.3 1.1 -1.3 3 0 1.2 0.8 1.1 1 -0.7 1 -1.3 0 -2.3 -0.4 -2.3 -1z"/>
  <path d="M52.5 162 c-0.7 -1.2 0.2 -1.2 3 0 1.9 0.8 1.9 0.9 -0.2 0.9 -1.2 0.1 -2.5 -0.3 -2.8 -0.9z"/>
  <path d="M41.3 161.3 c0.9 -0.2 2.5 -0.2 3.5 0 0.9 0.3 0.1 0.5 -1.8 0.5 -1.9 0 -2.7 -0.2 -1.7 -0.5z"/>
 </g>
 <g fill="none" stroke="#603e0c" stroke-width="1">
  <path d="M20.3 113.5 c0 -2.2 0.2 -3 0.4 -1.7 0.2 1.2 0.2 3 0 4 -0.3 0.9 -0.5 -0.1 -0.4 -2.3z"/>
 </g>
 <g fill="none" stroke="#503d21" stroke-width="1">
  <path d="M109.5 167 c0.3 -0.5 1.3 -1 2.1 -1 0.8 0 1.2 0.5 0.9 1 -0.3 0.6 -1.3 1 -2.1 1 -0.8 0 -1.2 -0.4 -0.9 -1z"/>
  <path d="M97 166 c0 -0.5 1 -1 2.3 -1 1.8 0 1.9 0.2 0.7 1 -1.9 1.3 -3 1.3 -3 0z"/>
  <path d="M84.5 165 c0.3 -0.5 1.6 -1 2.8 -1 1.8 0 1.9 0.2 0.7 1 -2 1.3 -4.3 1.3 -3.5 0z"/>
  <path d="M37 161 c0 -0.5 1.9 -1 4.2 -1 4.9 0 4.7 0.5 -0.4 1.4 -2.4 0.4 -3.8 0.3 -3.8 -0.4z"/>
  <path d="M61.8 149.3 c1.8 -0.2 4.5 -0.2 6 0 1.5 0.2 0 0.4 -3.3 0.4 -3.3 0 -4.5 -0.2 -2.7 -0.4z"/>
  <path d="M36.2 148.3 c3.7 -0.2 10 -0.2 14 0 4 0.1 1 0.3 -6.7 0.3 -7.7 0 -11 -0.1 -7.3 -0.3z"/>
  <path d="M22.2 113 c0 -1.9 0.2 -2.7 0.5 -1.7 0.2 0.9 0.2 2.5 0 3.5 -0.3 0.9 -0.5 0.1 -0.5 -1.8z"/>
  <path d="M52.5 72.2 c-0.3 -0.8 -0.3 -1.7 0 -2 0.3 -0.3 0.5 0 0.5 0.7 0 0.7 0.3 1 0.8 0.7 0.4 -0.2 1.5 0.2 2.5 0.9 1.6 1.1 1.5 1.3 -0.7 1.3 -1.4 0 -2.7 -0.7 -3.1 -1.6z"/>
  <path d="M80.1 68.8 c-1.3 -2.2 -1.3 -2.2 0.5 -0.7 1 0.9 2.6 1.9 3.4 2.2 1.1 0.4 0.9 0.6 -0.5 0.6 -1.1 0.1 -2.6 -0.9 -3.4 -2.1z"/>
  <path d="M77.3 60.5 c0 -2.2 0.2 -3 0.4 -1.7 0.2 1.2 0.2 3 0 4 -0.3 0.9 -0.5 -0.1 -0.4 -2.3z"/>
 </g>
 <g fill="none" stroke="#564937" stroke-width="1">
  <path d="M68.4 161.9 c-0.4 -0.7 -2.5 -0.9 -6 -0.4 -3.6 0.4 -5.4 0.3 -5.4 -0.4 0 -0.7 -2.7 -1.1 -7.2 -1.1 -20.9 0.2 -28 -1.2 -23.6 -4.4 1.2 -0.9 1.4 -1.6 0.7 -2.3 -0.7 -0.7 -0.5 -1.5 0.5 -2.6 1.3 -1.3 4.1 -1.5 16.7 -1.2 8.3 0.2 15.3 0.6 15.6 0.9 0.4 0.3 1.8 0.6 3.2 0.6 1.6 0 3.1 0.8 3.9 2.1 1.3 2 1.2 2.1 -1.7 1.4 -2.5 -0.5 -3 -0.4 -2.5 0.8 0.4 1.1 1.6 1.4 4.5 1 3.2 -0.5 4.4 -0.1 6.3 1.6 1.3 1.3 2.5 1.8 2.7 1.2 0.3 -0.7 1.9 -0.8 4.4 -0.4 3.2 0.5 3.6 0.8 2 1.5 -1.3 0.5 -0.4 0.6 2.5 0.3 3.2 -0.3 3.8 -0.2 2 0.4 -2.3 0.7 -2.3 0.8 -0.5 1.3 1.1 0.3 0 0.3 -2.5 0 -2.5 -0.2 -5.2 -0.8 -6 -1.2 -0.9 -0.5 -2.6 -0.2 -4 0.6 -3.1 1.6 -4.7 1.7 -5.6 0.3z m-11.4 -7.3 c0 -1.8 -2.6 -2.7 -5.6 -2 -3.4 0.9 -3 2.2 0.9 2.7 1.7 0.2 3.5 0.5 4 0.5 0.4 0.1 0.7 -0.4 0.7 -1.2z"/>
  <path d="M73.5 154 c-0.7 -1.2 1.3 -2.3 2.6 -1.5 0.6 0.4 1.7 -0.1 2.5 -1.1 1.4 -1.7 1.5 -1.7 1 -0.1 -0.3 0.9 0 1.7 0.6 1.7 0.6 0 0.8 0.3 0.5 0.6 -1 1 -6.7 1.3 -7.2 0.4z"/>
  <path d="M55.4 128.5 c0.1 -1.1 0.6 -2 1.3 -2 0.6 0 1.4 -0.3 1.8 -0.7 0.4 -0.4 1.4 -0.4 2.3 0 1.5 0.5 1.5 0.4 0.2 -1.4 -1.1 -1.5 -1.1 -1.6 0 -0.6 0.8 0.6 3 1.3 5 1.4 l3.5 0.1 -3.4 0.4 c-1.9 0.3 -4 1.2 -4.6 2 -0.9 1.2 -1.6 1.3 -3.3 0.4 -1.7 -0.9 -2.1 -0.8 -2.5 0.7 -0.3 1.3 -0.4 1.2 -0.3 -0.3z"/>
  <path d="M51 119 c-2.1 -0.7 -2.1 -0.8 -0.5 -0.9 1.1 0 2.7 0.4 3.5 0.9 1.8 1.1 0.5 1.1 -3 0z"/>
  <path d="M31.3 116.2 c-6 -1.2 -7.3 -1.8 -7.3 -3.3 0 -1.1 0.5 -1.9 1.1 -1.9 0.6 0 0.9 0.7 0.5 1.5 -0.4 1 0.1 1.5 1.4 1.5 1.1 0 2 -0.4 2 -1 0 -0.5 0.7 -1 1.5 -1 0.8 0 1.5 0.7 1.5 1.5 0 0.8 0.8 1.5 1.8 1.5 1.4 0 1.5 -0.2 0.2 -1 -1.2 -0.8 -1.1 -1 0.8 -1 1.2 0 2.2 0.4 2.2 0.9 0 0.5 1 1.1 2.2 1.3 2.6 0.4 3.5 2.3 1.1 2.4 -1 0.1 -5.1 -0.6 -9 -1.4z"/>
  <path d="M40.6 113.5 c-0.4 -1.3 -0.2 -1.4 1.4 -0.5 2.3 1.3 2.6 2 0.6 2 -0.8 0 -1.6 -0.7 -2 -1.5z"/>
  <path d="M50.6 92.1 c0.2 -0.2 -0.1 -1.2 -0.7 -2.3 -1 -1.8 -0.9 -1.9 2 -0.4 4.2 2.2 4.7 3.6 1.2 3.3 -1.6 -0.1 -2.8 -0.4 -2.5 -0.6z"/>
  <path d="M59.5 86.4 c-1.6 -1.3 -3.6 -2.4 -4.4 -2.4 -0.8 0 -2.5 -1 -3.8 -2.1 -1.9 -1.9 -2.5 -2 -4 -0.9 -1.7 1.3 -1.7 1.3 -0.1 -0.5 1.6 -1.7 1.9 -1.7 3.5 -0.3 1 0.8 3.2 2 4.8 2.7 3.6 1.4 8.2 4.8 7.5 5.4 -0.3 0.3 -1.8 -0.6 -3.5 -1.9z"/>
  <path d="M61.5 82.1 c0.3 -0.5 -0.4 -1.6 -1.5 -2.4 -1.8 -1.3 -1.9 -1.5 -0.5 -2.1 0.9 -0.3 1.3 -0.2 1 0.3 -0.3 0.5 0.4 1.6 1.5 2.4 1.8 1.3 1.9 1.5 0.5 2.1 -0.9 0.3 -1.3 0.2 -1 -0.3z"/>
  <path d="M65.4 81.1 c0.4 -0.5 0.1 -1.1 -0.6 -1.3 -0.9 -0.3 -0.9 -0.6 0 -1.2 0.7 -0.4 1.2 -0.2 1.2 0.4 0 0.6 0.5 0.8 1.3 0.4 0.8 -0.5 0.8 -0.2 -0.2 0.9 -1.4 1.8 -2.6 2.3 -1.7 0.8z"/>
  <path d="M56.4 76.1 c0.4 -0.5 0 -1.1 -0.6 -1.4 -0.7 -0.3 -0.4 -0.5 0.8 -0.4 2.3 0.1 2.9 2.7 0.7 2.7 -0.8 0 -1.2 -0.4 -0.9 -0.9z"/>
  <path d="M93 18 c0 -1.6 1.7 -2 2.8 -0.7 0.8 1 0.6 1.3 -0.9 1.4 -1 0.1 -1.9 -0.2 -1.9 -0.7z"/>
 </g>
 <g fill="none" stroke="#6a4d1f" stroke-width="1">
  <path d="M33.3 147.3 c1.5 -0.2 3.9 -0.2 5.5 0 1.5 0.2 0.2 0.4 -2.8 0.4 -3 0 -4.3 -0.2 -2.7 -0.4z"/>
  <path d="M97.8 53.9 c-1.5 -2.1 -2.6 -3.9 -2.3 -3.9 0.7 0 5.8 7 5.4 7.4 -0.2 0.2 -1.6 -1.4 -3.1 -3.5z"/>
  <path d="M92.2 43 c0 -1.4 0.3 -3.4 0.8 -4.5 l0.9 -2 -0.1 2 c0 1.1 -0.4 3.1 -0.8 4.5 l-0.8 2.5 0 -2.5z"/>
 </g>
 <g fill="none" stroke="#69512f" stroke-width="1">
  <path d="M128 164.3 c0 -2.2 0.2 -2.5 1 -1.3 1.3 2 1.3 4 0 4 -0.5 0 -1 -1.2 -1 -2.7z"/>
  <path d="M114.5 153 c-1.8 -0.8 -1.8 -0.9 0.5 -0.9 1.4 0 3.2 0.4 4 0.9 1.2 0.8 1.2 1 -0.5 0.9 -1.1 0 -2.9 -0.4 -4 -0.9z"/>
  <path d="M108.3 150.5 c-0.3 -0.9 -0.3 -1.9 0.1 -2.2 0.3 -0.4 0.6 0.1 0.6 1 0 0.8 0.8 1.8 1.8 2 1.6 0.4 1.6 0.5 -0.1 0.6 -1 0 -2 -0.6 -2.4 -1.4z"/>
  <path d="M106.6 142.9 c-0.8 -4.2 0 -5 0.9 -0.9 0.4 1.7 0.5 3.4 0.2 3.6 -0.2 0.3 -0.7 -1 -1.1 -2.7z"/>
  <path d="M87.3 142.6 c0.3 -0.8 -0.1 -2 -0.9 -2.6 -0.8 -0.7 -1.3 -2.2 -1.3 -3.4 0.1 -1.7 0.2 -1.7 0.6 -0.3 0.2 0.9 0.9 1.7 1.4 1.7 0.6 0 0.8 0.4 0.4 0.9 -0.3 0.5 -0.1 1.2 0.5 1.6 1.4 0.8 1.3 3.5 -0.1 3.5 -0.6 0 -0.9 -0.6 -0.6 -1.4z"/>
  <path d="M106 136.5 c0 -0.5 2.3 -3.4 5 -6.4 2.8 -3 5 -6 5 -6.7 0 -0.7 0.4 -1.6 1 -1.9 1.9 -1.2 -0.3 3 -3.9 7.4 -2 2.4 -4.4 5.3 -5.3 6.5 -1 1.1 -1.8 1.7 -1.8 1.1z"/>
  <path d="M91.8 134.2 c-0.8 -1.2 -1.7 -1.9 -2 -1.7 -0.3 0.3 -0.8 -0.1 -1.1 -0.8 -0.4 -1.1 0 -1.3 1.3 -1 2.4 0.6 4.3 2.9 3.8 4.5 -0.3 0.7 -1 0.4 -2 -1z"/>
  <path d="M75 126.9 c0 -0.6 0.7 -1.7 1.5 -2.5 0.8 -0.9 1.5 -1.1 1.5 -0.5 0 0.5 -0.5 1.3 -1 1.6 -0.6 0.4 -0.8 1.1 -0.5 1.6 0.4 0.5 0.1 0.9 -0.4 0.9 -0.6 0 -1.1 -0.5 -1.1 -1.1z"/>
  <path d="M76.3 117.3 c-0.7 -0.2 -1.3 -0.9 -1.3 -1.5 0 -0.7 0.4 -0.7 1.3 0 0.6 0.5 2.1 1.2 3.2 1.5 l2 0.5 -2 0 c-1.1 0 -2.6 -0.2 -3.2 -0.5z"/>
  <path d="M52.3 114.1 c-2.4 -0.4 -4.5 -1 -4.8 -1.3 -0.6 -0.6 3.6 -0.2 12.5 1.1 l5.5 0.8 -4.5 0 c-2.5 0 -6.4 -0.3 -8.7 -0.6z"/>
  <path d="M26.3 110.3 c0.9 -0.2 2.5 -0.2 3.5 0 0.9 0.3 0.1 0.5 -1.8 0.5 -1.9 0 -2.7 -0.2 -1.7 -0.5z"/>
  <path d="M41 77.8 c0 -0.4 0.9 -0.8 1.9 -0.8 1.1 0 2.2 0.4 2.5 0.8 0.2 0.4 -0.6 0.8 -2 0.8 -1.3 0 -2.4 -0.4 -2.4 -0.8z"/>
  <path d="M73.8 77.9 c0.6 -0.7 1.2 -2.7 1.3 -4.3 0 -1.7 0.6 -4.6 1.2 -6.3 l1.2 -3.2 1.7 2.9 c1.6 2.8 1.6 3 -0.1 3 -1.2 0 -2 1.2 -2.7 4.2 -0.5 2.3 -1.6 4.4 -2.4 4.6 -1.2 0.4 -1.3 0.2 -0.2 -0.9z"/>
  <path d="M113.7 75 c-0.9 -1.1 -1.3 -2 -0.8 -2 1.1 0 3.5 2.9 2.9 3.5 -0.2 0.2 -1.2 -0.4 -2.1 -1.5z"/>
  <path d="M84 61.1 c0 -0.5 -0.3 -1.6 -0.6 -2.5 -0.3 -0.9 -0.2 -1.6 0.4 -1.6 0.5 0 1.2 1.1 1.4 2.5 0.3 1.4 0.1 2.5 -0.3 2.5 -0.5 0 -0.9 -0.4 -0.9 -0.9z"/>
  <path d="M101.2 61.1 c-1.1 -0.6 -1 -1 0.4 -1.5 0.9 -0.3 1.9 -0.4 2.2 -0.1 0.3 0.3 -0.1 0.5 -0.9 0.5 -1.1 0 -1.1 0.2 0.1 1 0.8 0.5 1.1 1 0.5 1 -0.5 0 -1.6 -0.4 -2.3 -0.9z"/>
  <path d="M88 56.1 c-1.8 -0.5 -2.1 -0.9 -1.1 -1.5 0.8 -0.5 1.9 -0.2 2.9 0.8 0.9 0.9 1.4 1.6 1.2 1.5 -0.3 -0.1 -1.6 -0.4 -3 -0.8z"/>
  <path d="M94.1 50.4 c-1.9 -2.1 -3.6 -3.2 -4.4 -2.8 -0.9 0.5 -0.9 0.4 0.1 -0.7 0.6 -0.7 1.3 -3.1 1.3 -5.3 0.1 -3.9 0.2 -3.8 0.9 1.3 0.5 2.9 1.2 5.6 1.7 6 0.4 0.3 1.7 1.6 2.7 2.9 3.1 3.7 1.1 2.5 -2.3 -1.4z"/>
  <path d="M70.6 46.4 c-0.4 -1.4 -0.4 -2.9 -0.1 -3.5 0.9 -1.4 2.7 0.1 2.1 1.8 -0.3 0.8 -0.1 1.1 0.4 0.8 1.5 -0.9 1.2 0.4 -0.4 2 -1.2 1.2 -1.5 1.1 -2 -1.1z"/>
  <path d="M92.4 33.6 c0.1 -2.1 0.5 -3.2 1.3 -2.9 0.6 0.2 1 1.2 0.8 2.1 -0.2 0.9 -0.4 2.3 -0.4 3 -0.2 2.9 -1.7 0.9 -1.7 -2.2z"/>
  <path d="M85.8 26.4 c-0.3 -0.3 -2 -0.6 -3.7 -0.6 -4.2 -0.1 -2.5 -1.9 2.3 -2.3 3 -0.3 3.6 -0.1 3.6 1.6 0 1.8 -1.1 2.5 -2.2 1.3z"/>
  <path d="M74.6 20.1 c-0.3 -0.5 0.4 -1.1 1.6 -1.4 2.9 -0.8 3.2 -0.4 0.8 1.1 -1 0.6 -2.1 0.8 -2.4 0.3z"/>
  <path d="M95.5 11.4 c-1.8 -1.6 -2.2 -2.2 -0.9 -1.5 1.8 0.9 5.3 4.2 4.3 4.1 -0.2 -0.1 -1.7 -1.2 -3.4 -2.6z"/>
 </g>
 <g fill="none" stroke="#65563f" stroke-width="1">
  <path d="M123.6 166.8 c0.5 -0.8 -0.7 -1 -4.4 -0.5 -3.2 0.4 -5.4 0.2 -5.8 -0.5 -0.4 -0.6 -2.1 -0.8 -4.1 -0.5 -1.9 0.3 -10 0 -18.1 -0.8 -8.1 -0.8 -15.8 -1.5 -17.2 -1.5 l-2.5 -0.1 2.5 -1.3 c1.4 -0.8 3.1 -1.1 4 -0.6 0.8 0.4 3.8 1 6.5 1.3 3.1 0.4 4 0.3 2.5 -0.2 -2.3 -0.7 -2.3 -0.8 -0.5 -1.3 1.1 -0.3 0.2 -0.3 -2 -0.2 -2.8 0.3 -3.4 0.1 -2 -0.4 1.6 -0.7 1.2 -1 -2 -1.5 -2.5 -0.4 -4.1 -0.3 -4.4 0.4 -0.2 0.6 -1.4 0.1 -2.7 -1.2 -1.9 -1.7 -3.1 -2.1 -6.3 -1.6 -2.9 0.4 -4.1 0.1 -4.5 -1 -0.5 -1.2 0 -1.3 2.5 -0.8 2.9 0.7 3 0.6 1.7 -1.4 -0.8 -1.3 -2.4 -2.1 -4.3 -2.2 -2 -0.1 -2.3 -0.3 -1.1 -0.6 2.9 -0.7 16.6 0.7 16.6 1.8 0 0.5 -0.8 0.8 -1.7 0.6 -1 -0.1 -1.9 0.3 -2 0.8 -0.3 1.1 5.7 1.4 6.4 0.3 0.2 -0.5 -0.1 -0.8 -0.7 -0.8 -0.6 0 -0.9 -0.4 -0.6 -0.8 0.9 -1.6 1.7 -7.3 1 -8.3 -0.4 -0.6 -1.2 -0.5 -2.2 0.3 -1.2 1 -1.4 1 -0.8 0.1 0.5 -0.9 -0.1 -1.3 -1.8 -1.3 -1.7 0 -2.6 -0.6 -2.6 -1.5 0 -1.2 -0.4 -1.3 -1.8 -0.6 -1 0.5 -2.4 0.6 -3.1 0.2 -0.7 -0.5 -0.9 -1.1 -0.5 -1.3 1.1 -0.6 -1.1 0 -3.4 0.9 -1.5 0.6 -1.5 0.5 -0.4 -1 0.8 -0.9 1.1 -2 0.8 -2.6 -0.3 -0.5 0 -1.2 0.6 -1.5 0.7 -0.2 0.4 -0.3 -0.7 -0.2 -3.1 0.5 -5.5 1.7 -5.5 2.9 0 0.5 0.8 0.3 1.8 -0.6 1 -1 2.1 -1.4 2.5 -1.1 0.7 0.8 -1.7 3.4 -3.2 3.4 -1.4 0 -3 -3.2 -2.4 -4.7 0.3 -0.7 0 -1.3 -0.5 -1.3 -1.3 0 -1.3 -6.8 0.1 -7.7 0.5 -0.3 0.7 -0.1 0.4 0.4 -0.9 1.5 2.4 2.6 3.7 1.3 0.8 -0.8 0.7 -1.3 -0.2 -1.9 -1.1 -0.7 -1 -1 0.3 -1.5 0.9 -0.3 2.6 -0.5 3.8 -0.5 1.7 0.1 1.5 0.3 -0.8 0.9 -3 0.8 -3 0.8 0.8 0.9 2 0 3.7 -0.3 3.7 -0.9 0 -2.1 3 -0.9 4.4 1.8 0.8 1.5 1.7 2.6 2 2.5 0.3 -0.2 0.6 0 0.5 0.3 -0.2 1.4 2.6 2.2 5.3 1.7 3.7 -0.7 6.5 0.4 5 1.9 -1.5 1.5 -1.6 5.5 -0.2 6.3 0.6 0.3 1 1.4 1 2.4 0 1.5 0.7 1.7 4.8 1.4 2.6 -0.2 6.7 0 9.2 0.5 l4.5 1 -4 0.2 c-2.2 0.1 -4.4 0.1 -5 0 -4.3 -1 -4.4 -0.8 -0.5 1 2.4 1.2 5.8 2 7.4 1.8 1.9 -0.2 3.1 0.2 3.3 1.2 0.4 1.3 0.3 1.3 -0.6 0 -0.9 -1.2 -1.1 -1.1 -1.1 0.7 0 1.2 0.6 2.4 1.3 2.6 1 0.4 1 0.6 0 0.6 -0.7 0.1 -1.3 0.4 -1.3 0.9 0 0.4 2.1 0.6 4.8 0.5 4.5 -0.1 4.5 -0.1 1.2 0.7 -2.5 0.6 -1.1 0.7 4.7 0.4 l8.3 -0.3 0.8 3.2 c0.5 1.8 1.3 3.1 1.8 3 1.3 -0.2 1.2 5 -0.1 5.9 -1.6 1.2 -3.7 0.9 -2.9 -0.4z m-23.6 -4.2 c0 -0.9 -4 -1.3 -4.6 -0.5 -0.3 0.5 0.6 0.9 2 0.9 1.4 0 2.6 -0.2 2.6 -0.4z m13 -3.1 c0 -0.8 1.5 -1.9 3.3 -2.5 l3.2 -1 -3.4 0.5 c-1.8 0.3 -4.1 0.5 -5 0.5 -1.4 0 -1.4 0.2 -0.1 1 1.2 0.8 0.8 1 -1.5 1.1 -2.9 0.1 -3 0.1 -0.5 0.9 3.7 1.2 4 1.1 4 -0.5z m11 -0.4 c0 -2.2 -2.6 -3.5 -3.6 -1.9 -0.5 0.7 -0.3 0.8 0.5 0.4 0.8 -0.5 1.4 0 1.8 1.3 0.7 2.6 1.3 2.7 1.3 0.2z"/>
  <path d="M63.3 161.3 c0.9 -0.2 2.5 -0.2 3.5 0 0.9 0.3 0.1 0.5 -1.8 0.5 -1.9 0 -2.7 -0.2 -1.7 -0.5z"/>
  <path d="M50.3 160.3 c1.5 -0.2 3.7 -0.2 5 0 1.2 0.2 0 0.4 -2.8 0.4 -2.7 0 -3.8 -0.2 -2.2 -0.4z"/>
  <path d="M52.3 155.3 c-1.8 -0.2 -3.3 -0.8 -3.3 -1.3 0 -1.1 4.5 -2.1 6.4 -1.4 1.6 0.6 2.3 3.6 0.9 3.2 -0.5 0 -2.3 -0.3 -4 -0.5z"/>
  <path d="M43.8 149.3 c2.3 -0.2 5.9 -0.2 8 0 2 0.2 0.1 0.4 -4.3 0.4 -4.4 0 -6.1 -0.2 -3.7 -0.4z"/>
  <path d="M106.5 130.6 c-1 -1.1 -1.6 -4.6 -0.9 -4.6 0.6 0 2.6 5.2 2.2 5.5 -0.2 0.2 -0.7 -0.2 -1.3 -0.9z"/>
  <path d="M70 122 c0 -0.6 -1.9 -0.9 -4.5 -0.7 -2.5 0.2 -4.5 -0.1 -4.5 -0.6 0 -0.5 -0.8 -0.7 -1.8 -0.5 -1.1 0.3 -3 -0.1 -4.3 -0.8 -1.3 -0.7 -3.3 -1.3 -4.4 -1.3 -1.1 0.1 -0.5 0.5 1.5 1.1 1.9 0.6 2.9 1.3 2.2 1.5 -0.7 0.3 -3.1 -0.5 -5.4 -1.7 -3.2 -1.7 -3.9 -1.8 -2.8 -0.5 1.2 1.4 1.1 1.6 -1.1 1.1 -1.3 -0.3 -6.2 -1 -10.9 -1.7 -4.7 -0.6 -9.1 -1.6 -9.7 -2.2 -1.5 -1.1 -1.7 -4.3 -0.4 -5.1 0.4 -0.3 0.6 0.5 0.4 1.8 -0.4 2.1 0 2.4 5.6 3.5 9.8 1.9 12.3 2.1 11.8 0.8 -0.2 -0.7 -1.3 -1.3 -2.5 -1.5 -1.2 -0.2 -2.2 -0.8 -2.2 -1.3 0 -0.5 -1 -0.9 -2.2 -0.9 -1.9 0 -2 0.2 -0.8 1 1.3 0.8 1.2 1 -0.2 1 -1 0 -1.8 -0.7 -1.8 -1.5 0 -0.8 -0.7 -1.5 -1.5 -1.5 -0.8 0 -1.5 0.5 -1.5 1 0 0.6 -0.9 1 -2 1 -1.3 0 -1.8 -0.5 -1.4 -1.5 1 -2.4 11.8 -2.1 14.4 0.5 2.4 2.4 4.9 2.8 3 0.5 -1.6 -1.9 -0.3 -1.9 3 0 2.3 1.3 2.3 1.4 0.5 1.5 -1.1 0.1 -1.4 0.4 -0.7 0.7 0.7 0.3 1.9 0 2.7 -0.7 1.6 -1.3 24.6 0.5 27.8 2.2 1 0.5 3 0.7 4.5 0.4 1.5 -0.3 3.4 -0.2 4.2 0.4 1.2 0.7 1.2 1 0.1 1 -0.8 0 -1.1 0.6 -0.7 1.5 0.7 2 -2.3 3.2 -3.5 1.4 -0.6 -1 -0.9 -1 -0.9 -0.1 0 0.6 -0.9 1.2 -2 1.2 -1.1 0 -2 -0.4 -2 -1 0 -0.5 0.8 -0.7 1.8 -0.4 1.3 0.5 1.4 0.4 0.3 -0.4 -0.9 -0.6 -2.2 -0.5 -4 0.4 -3.1 1.7 -4.1 1.7 -4.1 0.4z"/>
  <path d="M100.6 122.1 c-0.4 -0.5 -0.1 -1.3 0.5 -1.7 0.8 -0.4 0.9 -0.3 0.5 0.4 -0.4 0.7 -0.3 1.2 0.3 1.2 0.5 0 1.2 -0.5 1.4 -1 0.3 -0.6 0.4 -0.5 0.3 0.2 -0.3 1.6 -2.3 2.2 -3 0.9z"/>
  <path d="M113 122.5 c0 -0.5 0.4 -1.6 0.9 -2.3 0.6 -1.1 1 -1 1.5 0.4 0.3 0.9 0.4 1.9 0.1 2.2 -0.3 0.3 -0.5 -0.1 -0.5 -0.9 0 -1.1 -0.2 -1.1 -1 0.1 -0.5 0.8 -1 1.1 -1 0.5z"/>
  <path d="M101.3 117.7 c-0.3 -0.6 -0.1 -0.7 0.5 -0.3 0.6 0.3 1.5 -0.2 2.1 -1.1 0.9 -1.6 1 -1.6 0.8 0.3 -0.1 2.1 -2.3 2.8 -3.4 1.1z"/>
  <path d="M109.3 94.5 c0 -2.2 0.2 -3 0.4 -1.7 0.2 1.2 0.2 3 0 4 -0.3 0.9 -0.5 -0.1 -0.4 -2.3z"/>
  <path d="M65 91.5 c-0.7 -0.8 -1.7 -1.5 -2.2 -1.5 -0.5 0 -1.6 -0.7 -2.5 -1.6 -1.3 -1.2 -1.3 -1.8 -0.3 -2.7 0.9 -0.8 1.1 -0.8 0.7 -0.1 -0.4 0.7 0.1 1.8 1 2.5 1.5 1.3 1.6 1.1 1 -1 l-0.6 -2.3 2 2 c1 1.2 1.9 2.6 1.9 3.1 0 0.6 0.8 1.5 1.8 2 1.5 0.9 1.5 1 0.1 1.1 -0.9 0 -2.2 -0.7 -2.9 -1.5z"/>
  <path d="M55 85.8 c0 -0.5 -0.4 -0.6 -1 -0.3 -0.5 0.3 -1 0.2 -1 -0.4 0 -0.5 -1 -1.1 -2.2 -1.3 -1.3 -0.2 -2.3 -0.9 -2.3 -1.7 0 -0.8 -1.1 -1.6 -2.5 -1.8 -3.9 -0.6 -4.3 -1.9 -0.6 -1.8 1.9 0 3.2 0.4 2.9 0.8 -0.2 0.4 0.7 0.6 2.1 0.3 1.5 -0.3 2.4 -0.1 2.1 0.5 -0.4 0.5 -1.2 0.6 -1.8 0.2 -0.7 -0.3 -0.4 0.3 0.7 1.5 1 1.1 2.7 2.2 3.9 2.4 2.4 0.4 3.5 2.5 1.2 2.5 -0.8 0 -1.5 -0.4 -1.5 -0.9z"/>
  <path d="M63.7 82 c0.4 -1.5 -0.1 -1.7 -2.6 -1.5 -1.7 0.1 -3.1 -0.2 -3.1 -0.7 0 -0.6 0.6 -0.8 1.3 -0.5 0.8 0.3 1.4 -0.1 1.4 -0.9 0 -1.2 -0.4 -1.2 -2.3 0.1 -2 1.3 -2.3 1.2 -2.8 -0.1 -0.3 -0.8 -1 -1.3 -1.5 -1 -1 0.6 -2.5 -2.4 -1.6 -3.2 0.3 -0.3 0.5 -0.2 0.5 0.3 0 0.4 0.8 0.1 1.7 -0.6 1.3 -1.1 1.5 -1.1 0.9 -0.1 -0.5 0.9 -0.3 1.2 0.5 1.1 2.4 -0.5 5.9 1.2 5.9 2.7 0 0.8 0.3 1.3 0.8 1.1 0.8 -0.5 2.6 1.3 2.9 3 0.1 0.6 -0.4 1.3 -1.1 1.6 -0.9 0.4 -1.2 0 -0.9 -1.3z"/>
  <path d="M67.7 76.6 c-0.7 -1.8 1.8 -2.3 2.8 -0.6 0.4 0.6 1.1 0.8 1.6 0.4 1.4 -0.8 0 -2.4 -2.2 -2.4 -1.4 0 -1.8 -0.4 -1.3 -1.2 0.6 -1 0.4 -1 -0.8 0 -1.2 0.9 -1.8 1 -2.3 0.2 -0.4 -0.6 -1.3 -0.9 -2.1 -0.6 -0.8 0.3 -1.4 0.1 -1.4 -0.5 0 -0.6 -0.4 -0.8 -0.8 -0.5 -1.2 0.7 -5.4 -3.3 -4.7 -4.5 0.4 -0.5 0.2 -0.9 -0.4 -0.9 -0.5 0 -1.2 0.6 -1.4 1.3 -0.4 0.9 -0.8 0.9 -1.6 -0.3 -1.3 -1.8 -0.3 -3.3 1.6 -2.6 1 0.4 1.3 0.2 1 -0.8 -0.3 -0.8 -0.3 -1.7 0.1 -2.1 0.7 -0.6 0.8 -1.1 1 -5.2 0.1 -1.4 0.9 -2.3 1.8 -2.3 0.8 0 1.2 -0.5 0.9 -1 -0.3 -0.6 0.1 -1.3 0.9 -1.6 0.9 -0.3 1.6 -1.3 1.6 -2.1 0 -0.8 0.5 -1.1 1 -0.8 0.6 0.3 1 -0.3 1 -1.4 0 -1.2 -0.5 -2.1 -1.1 -2.1 -0.6 0 0.3 -1.2 2 -2.7 1.7 -1.5 3.1 -3.3 3.1 -4.1 0 -0.8 0.5 -1 1.3 -0.6 0.9 0.6 0.9 0.5 0 -0.7 -1 -1.3 -1 -2.1 0 -4.2 0.6 -1.5 1.7 -2.7 2.4 -2.7 0.7 0 1 -0.6 0.7 -1.4 -0.5 -1.2 3.2 -8.6 4.3 -8.6 0.2 0 0.1 0.5 -0.3 1.1 -0.4 0.7 -0.1 1 0.7 0.7 0.8 -0.3 1.3 -1.1 1.1 -1.7 -0.5 -2.2 2.7 -2.2 5.7 0 3.2 2.3 3.3 3.9 0.3 3.4 -0.9 -0.1 -1.6 -0.8 -1.4 -1.5 0.1 -0.6 -0.2 -0.8 -0.8 -0.5 -0.6 0.4 -0.9 0.9 -0.6 1.3 0.3 0.3 -0.2 1.1 -1.2 1.8 -1.9 1.5 -1.1 1.8 3.8 1.5 l2.5 -0.2 -2.5 2 c-1.4 1.1 -2 2.1 -1.3 2.1 0.6 0 2.5 -1.4 4.1 -3 3 -3 5.5 -4.2 3.3 -1.7 -1.2 1.5 -1.1 7.8 0.2 7 0.4 -0.2 0.8 -1.9 0.8 -3.6 l0.1 -3.2 0.7 3 c0.8 3.6 0.2 7.7 -1 6.9 -0.5 -0.3 -1.2 0.3 -1.5 1.3 -0.3 1 -1 2.6 -1.5 3.5 -1.3 2.5 -1.1 3.1 0.7 2.4 1.2 -0.5 1.5 -0.2 0.9 1.1 -0.4 1 -0.8 2.3 -0.8 3 0 0.6 -0.6 0.9 -1.4 0.6 -0.7 -0.3 -1.3 0.1 -1.3 0.9 0 0.9 1.1 1.3 3.5 1.3 1.9 -0.1 3.2 0.2 2.9 0.7 -0.3 0.4 0.1 1.1 1 1.4 1.9 0.7 2.8 3.1 1 3.1 -0.7 0 -1.1 -0.4 -0.9 -0.8 0.7 -1.1 -2.3 -3.2 -3.5 -2.4 -0.5 0.3 -1 0.1 -1 -0.5 0 -0.7 -0.6 -0.8 -1.9 -0.1 -1 0.6 -2.1 0.8 -2.4 0.5 -0.9 -0.9 -2 8.3 -1.1 9.7 0.4 0.8 0.3 1 -0.4 0.5 -0.7 -0.4 -1.2 -1.9 -1.2 -3.4 0 -2.1 -0.2 -2.4 -1 -1.2 -0.8 1.2 -1 1.1 -1 -0.7 0 -2.5 1.6 -3.9 2.4 -2.1 0.3 0.7 0.3 0.1 0 -1.3 -0.4 -1.8 -0.1 -2.8 1 -3.2 0.9 -0.4 1.6 -1.3 1.6 -2.2 0 -0.8 0.5 -1.5 1 -1.5 0.6 0 1 -0.4 1 -1 0 -0.5 -0.9 -1 -2.1 -1 -1.4 0 -1.9 0.5 -1.6 1.4 0.4 0.9 -0.2 1.2 -1.9 1 -1.6 -0.1 -2.4 0.3 -2.4 1.2 0 0.9 0.5 1.2 1.2 0.8 0.7 -0.4 0.8 -0.3 0.4 0.5 -0.4 0.6 -1.1 0.9 -1.6 0.6 -1.5 -0.9 -1.9 0.8 -2.1 9 -0.2 8.5 -0.7 11.7 -1.8 11.1 -0.3 -0.2 -0.6 1.5 -0.6 3.7 0 3.6 -0.3 4.2 -2.2 4.5 -1.4 0.2 -2.3 -0.2 -2.3 -1 0 -1.1 -0.2 -1.1 -0.9 0 -0.7 1.1 -0.9 1.1 -1.4 -0.2z m5.3 -32.7 c-1.3 -2.2 -0.8 -2.4 -6 2 -0.3 0.2 0.3 0.1 1.3 -0.2 1.4 -0.5 2 -0.2 2.4 1.3 0.4 1.7 0.7 1.7 2 0.5 1.1 -1.1 1.1 -1.9 0.3 -3.6z m-1.3 -9.1 c-1.5 -0.9 -1.9 -0.4 -1.1 1.6 0.5 1.4 0.9 1.5 1.5 0.5 0.5 -0.8 0.3 -1.7 -0.4 -2.1z"/>
  <path d="M92.3 67.7 c-1.3 -0.5 -2.3 -1.5 -2.3 -2.1 0 -0.6 -0.5 -0.4 -1 0.4 -0.8 1.3 -1 1.3 -1 -0.2 0 -0.9 1.3 -2.1 3 -2.7 1.8 -0.6 2.8 -0.6 2.5 -0.1 -0.4 0.6 -0.1 1 0.4 1 0.6 0 1.1 -0.4 1.1 -0.9 0 -0.5 0.7 -1.2 1.6 -1.5 1.4 -0.5 1.5 -0.4 0.4 0.9 -0.7 0.9 -0.9 1.9 -0.5 2.3 0.4 0.4 1 0.1 1.2 -0.5 0.7 -1.9 2.5 -1.6 2.1 0.3 -0.2 0.8 -0.6 1.4 -0.9 1.2 -0.4 -0.2 -1.5 0.4 -2.5 1.3 -1.5 1.3 -2.4 1.4 -4.1 0.6z"/>
  <path d="M89.6 19.5 c0.2 -0.6 -0.9 -1.6 -2.6 -2.3 -1.6 -0.8 -3 -2 -3 -2.8 0 -2.2 3 -2.9 4.8 -1 1 1 1.2 1.6 0.4 1.6 -0.7 0 -1.2 0.5 -1.2 1.1 0 0.8 0.4 0.8 1.4 0 1.5 -1.3 4.9 -0.4 4 1 -0.3 0.6 -0.1 1.5 0.4 2.2 0.8 0.9 0.3 1.2 -1.8 1.2 -1.5 0 -2.6 -0.5 -2.4 -1z"/>
 </g>
 <g fill="none" stroke="#7d6033" stroke-width="1">
  <path d="M52.7 125.9 c1.1 -1.3 0.9 -1.5 -1.7 -1.1 -3.8 0.5 -3.9 -0.3 -0.1 -1.6 4 -1.4 5.7 0 2.9 2.4 -1.3 1.1 -1.7 1.2 -1.1 0.3z"/>
  <path d="M121 103.2 c0 -4 0.4 -7.2 0.9 -7.2 1 0 0.8 12.7 -0.2 13.7 -0.4 0.3 -0.7 -2.6 -0.7 -6.5z"/>
  <path d="M116.6 82.3 c-0.4 -0.9 -0.2 -2.1 0.4 -2.7 0.8 -0.8 0.9 -0.6 0.4 0.8 -0.5 1.3 -0.4 1.7 0.4 1.2 0.8 -0.5 1 -0.2 0.6 0.8 -0.8 2 -1 2 -1.8 -0.1z"/>
  <path d="M77.5 72 c-0.3 -0.5 -0.1 -1.1 0.5 -1.5 0.5 -0.3 1 -0.2 1 0.3 0 0.5 1.5 0.6 3.3 0.4 4 -0.6 3.3 0.3 -1 1.1 -1.8 0.4 -3.5 0.2 -3.8 -0.3z"/>
  <path d="M85.8 57.8 c-0.7 -1.7 3.8 -2.3 4.8 -0.7 1 1.6 -0.6 2.5 -1.7 0.9 -0.7 -1.2 -1.1 -1.3 -1.8 -0.2 -0.7 1.1 -0.9 1.1 -1.3 0z"/>
 </g>
 <g fill="none" stroke="#73624b" stroke-width="1">
  <path d="M118.8 166.3 c1.2 -0.2 3 -0.2 4 0 0.9 0.3 -0.1 0.5 -2.3 0.4 -2.2 0 -3 -0.2 -1.7 -0.4z"/>
  <path d="M127.1 164.5 c0 -1.2 -0.6 -2.6 -1.2 -3.2 -0.6 -0.6 -0.9 -1.7 -0.6 -2.5 0.6 -1.8 2.9 4.1 2.4 6.1 -0.3 1.1 -0.5 1 -0.6 -0.4z"/>
  <path d="M109 160 c-2.5 -0.8 -2.4 -0.8 0.5 -0.9 2.3 -0.1 2.7 -0.3 1.5 -1.1 -1.3 -0.8 -1.3 -1 0.1 -1 0.9 0 3.2 -0.2 5 -0.5 l3.4 -0.5 -3.2 1 c-1.8 0.6 -3.3 1.7 -3.3 2.5 0 1.6 -0.3 1.7 -4 0.5z"/>
  <path d="M122.7 159.1 c-0.3 -1.5 -1 -2 -1.8 -1.5 -0.8 0.4 -1 0.3 -0.5 -0.4 0.4 -0.6 1.3 -0.9 2.1 -0.5 0.8 0.3 1.5 -0.1 1.5 -0.8 0 -0.7 0.2 -1 0.5 -0.8 0.2 0.3 0.1 1.8 -0.4 3.4 -0.7 2.9 -0.8 2.9 -1.4 0.6z"/>
  <path d="M111 155 c3.3 -0.8 3.2 -0.8 -1.2 -0.7 -4.6 0.2 -6.2 -0.6 -3.5 -1.6 1 -0.4 1 -0.6 0 -0.6 -0.7 -0.1 -1.3 -1.1 -1.3 -2.3 0 -1.9 0.2 -2 1.1 -0.8 0.9 1.3 1 1.3 0.6 0 -0.2 -1 -1.4 -1.4 -3.3 -1.2 -1.6 0.2 -5 -0.6 -7.4 -1.8 -3.9 -1.8 -3.8 -2 0.5 -1 0.6 0.1 2.8 0.1 5 0 3.9 -0.2 3.8 -0.3 -2 -1.5 -5 -1 -5.4 -1.9 -0.9 -1.8 0.8 0 0.9 -1.1 0.4 -3.4 -0.7 -2.8 -0.6 -3.2 0.6 -2.2 1.1 0.9 1.4 0.9 1.4 -0.1 0 -0.6 -0.8 -1.4 -1.8 -1.7 -2.1 -0.5 -4.7 -6.3 -2.9 -6.3 0.5 0 0.7 -0.3 0.4 -0.6 -0.4 -0.4 -1.3 -0.1 -2.2 0.6 -2.5 2 -2.9 0.4 -0.5 -2 1.3 -1.3 2.8 -1.9 3.8 -1.5 2 0.8 2.3 0.7 2 -0.2 -0.2 -0.5 -0.6 -0.7 -1 -0.6 -0.5 0.2 -0.8 -0.2 -0.8 -0.7 0 -0.6 1.2 -0.9 2.6 -0.8 1.6 0.2 2.8 -0.2 3 -1 0.1 -0.7 0 -0.8 -0.3 -0.2 -0.2 0.5 -0.9 1 -1.4 1 -0.6 0 -0.7 -0.5 -0.3 -1.2 0.4 -0.7 0.3 -0.8 -0.4 -0.4 -0.7 0.4 -1.2 0.2 -1.2 -0.3 0 -0.9 1.8 -1.5 4 -1.3 0.3 0 0.7 -0.9 0.7 -2 0.2 -2 0.1 -2 -1.2 -0.2 -0.8 1.1 -1.5 1.4 -1.5 0.7 0 -0.6 0.7 -1.8 1.5 -2.7 0.8 -0.8 1.5 -2.2 1.5 -3 0 -0.9 0.5 -1.6 1 -1.6 0.6 0 0.9 -0.3 0.8 -0.7 -0.1 -0.5 0.2 -3.7 0.6 -7.2 0.6 -4.2 1.1 -5.9 1.7 -5 0.6 0.9 0.8 0 0.8 -2.6 0 -2.2 -0.3 -3.4 -0.6 -2.7 -0.7 1.8 -2.3 0.4 -2.3 -2.1 0 -1.2 -1.2 -4.7 -2.7 -7.7 -1.4 -3 -2.7 -5.9 -2.7 -6.3 -0.1 -0.4 -0.5 -1.1 -1.1 -1.5 -3.2 -2.3 -3.7 -4.1 -1.9 -7.1 1.8 -3 1.2 -5.9 -0.6 -3.1 -0.5 0.8 -1.2 1.1 -1.6 0.7 -0.4 -0.3 -0.1 -1.3 0.6 -2.2 1.1 -1.3 1 -1.4 -0.4 -0.9 -0.9 0.3 -1.6 1 -1.6 1.5 0 0.5 -0.5 0.9 -1 0.9 -0.7 0 -0.7 -0.6 0 -1.9 1.7 -3.2 1.1 -5.9 -1.7 -8.6 -1.5 -1.4 -2.2 -2.5 -1.5 -2.5 0.7 0 1 -0.5 0.7 -1 -0.9 -1.5 -4.1 -1.2 -5.5 0.5 -1.5 1.8 0.1 2 1.8 0.3 0.7 -0.7 1.2 -0.8 1.2 -0.2 0 0.5 -0.9 1.5 -2 2.1 -2.6 1.7 -3.7 -0.2 -1.6 -2.6 0.9 -1 1.4 -2 1.1 -2.3 -0.3 -0.2 0.8 -0.5 2.5 -0.5 1.6 0 3 0.4 3 0.8 0 0.4 1.6 2.3 3.5 4.2 1.9 1.9 3.5 4.2 3.5 5.1 0 0.9 0.5 1.6 1.1 1.6 0.9 0 0.9 0.4 0 1.3 -0.9 1.1 -0.5 1.4 2 1.5 3.2 0.1 5.9 1.7 5.9 3.6 0 0.7 -0.4 0.6 -0.9 -0.2 -0.7 -1.1 -0.9 -1 -1.4 0.3 -0.4 0.9 -0.3 1.3 0.3 1 1.1 -0.7 6 3.8 6 5.5 0 0.6 0.9 2 2 3.2 1.7 1.8 2.3 4.2 1.9 7.4 0 0.3 0.8 1.3 1.8 2.2 2.4 2.2 2.8 5.3 2.8 19.6 0 8.7 -0.3 12 -1.2 12.4 -0.7 0.2 -1.3 1.2 -1.3 2.2 0 2.5 -1.9 3.5 -2.6 1.5 -0.6 -1.3 -0.8 -1.4 -1.5 -0.3 -0.5 0.7 -0.9 1.8 -0.9 2.3 0 0.6 0.4 0.4 0.9 -0.3 0.6 -1.1 1 -1 1.5 0.3 0.8 2.2 -1.2 4.8 -3.2 4 -1.2 -0.4 -1.2 -0.2 -0.3 0.8 0.8 1.1 0.6 1.8 -1 3.3 -1.7 1.6 -2.2 1.6 -2.9 0.4 -0.6 -0.8 -1 -2 -1 -2.6 0 -0.6 -0.9 -1.9 -2 -2.9 -1.1 -1 -2 -1.3 -2 -0.8 0 0.6 0.7 1.4 1.6 1.7 0.9 0.3 1.4 1.2 1.2 1.8 -0.3 0.7 0.2 1.9 0.9 2.7 1.8 1.7 1.1 3.6 -1.1 3.5 -1.6 -0.2 -1.6 0 -0.2 1.5 1.9 2.1 2.1 3.5 0.4 2.5 -0.8 -0.5 -0.9 -0.2 -0.3 1.2 0.4 1 1.2 4.2 1.7 6.9 l0.9 5.1 5.2 1.2 c2.9 0.7 6.3 1.2 7.6 1.2 1.4 0 2.2 0.3 1.8 0.6 -0.3 0.3 -3.9 0.7 -7.9 0.9 -5.5 0.2 -6.4 0.1 -3.8 -0.5z"/>
  <path d="M80.1 146.4 c-0.1 -0.6 -1.1 -1.6 -2.3 -2.3 -2.3 -1.1 -2.3 -1.1 0.2 -0.5 3.1 0.8 3.3 1 2.7 2.6 -0.3 0.7 -0.6 0.8 -0.6 0.2z"/>
  <path d="M86.3 132.5 c0 -0.9 0.4 -1.4 0.9 -1.3 0.5 0.2 1 0.8 1 1.3 0 0.5 -0.5 1.1 -1 1.3 -0.5 0.1 -0.9 -0.4 -0.9 -1.3z"/>
  <path d="M63.4 121 c1.8 -0.6 6.6 -0.2 6.6 0.6 0 0.1 -1.9 0.2 -4.2 0.2 -2.9 0 -3.7 -0.3 -2.4 -0.8z"/>
  <path d="M57.6 87.7 c-1.4 -1 -1.5 -1.4 -0.4 -1.4 0.7 0 1.9 0.6 2.6 1.4 0.7 0.7 0.9 1.3 0.4 1.3 -0.4 0 -1.6 -0.6 -2.6 -1.3z"/>
  <path d="M59.7 85.1 c-4.1 -2.6 -4.6 -3.6 -1 -1.7 1.7 0.9 3.5 2 3.8 2.6 0.8 1.3 0.6 1.2 -2.8 -0.9z"/>
  <path d="M62.7 83.1 c-4 -2.6 -4.7 -3.6 -1.2 -1.8 4.2 2.3 6.2 3.7 5 3.6 -0.5 0 -2.2 -0.8 -3.8 -1.8z"/>
  <path d="M60.6 72.8 c-3.8 -2.3 -6.4 -4.4 -5.8 -4.6 0.7 -0.2 1.9 0.4 2.8 1.2 2.4 2.5 5.3 3.8 6.7 3 0.6 -0.4 0.9 -0.4 0.5 0.1 -0.4 0.4 0.3 1.6 1.5 2.6 3.4 2.8 1.8 2.2 -5.7 -2.3z"/>
  <path d="M83.9 65.1 c-1.9 -2.4 -2.9 -4.6 -2.8 -6.6 l0.2 -3 0.4 2.9 c0.4 2.3 0.7 2.6 1.5 1.5 0.8 -1.2 0.9 -1.1 0.5 0.2 -0.3 0.9 -0.1 2.2 0.4 3 0.7 1.2 0.9 1.2 0.9 0 0 -1.1 0.3 -1.1 1.5 -0.1 0.9 0.7 1.4 1.9 1.1 2.7 -0.3 0.7 -0.1 1.3 0.4 1.3 0.6 0 1 -0.5 1 -1.1 0 -0.6 0.7 -0.3 1.6 0.5 1.9 1.9 2.6 2 4.4 0.4 1.2 -1.1 1.2 -1 0.1 0.4 -2.3 3.1 -7.8 2 -11.2 -2.1z"/>
  <path d="M82.2 54.5 c-1.7 -3.7 -1.4 -4.5 0.4 -1.2 0.9 1.6 1.4 3.1 1.1 3.3 -0.2 0.2 -0.9 -0.7 -1.5 -2.1z"/>
  <path d="M77.1 52.9 c-0.1 -2.4 2.2 -6.3 3.9 -6.7 0.8 -0.2 1.7 -0.8 1.8 -1.3 0.5 -1.2 4.2 -1.2 4.2 0.1 0 0.6 -0.8 1 -1.7 1 -2.5 0.1 -6 3 -7.2 6 -0.6 1.5 -1 1.9 -1 0.9z"/>
  <path d="M88.9 45.2 c1.5 -2.8 1.4 -3.2 -0.4 -2.6 -1.7 0.7 -1.9 0.1 -0.6 -2.4 0.5 -0.9 1.2 -2.5 1.5 -3.5 0.3 -1 1.1 -1.5 1.7 -1.1 0.8 0.4 0.8 0.8 0 1.3 -0.5 0.4 -0.9 2.6 -0.8 5 0.1 2.9 -0.2 4.5 -1.1 4.9 -1.1 0.3 -1.2 0 -0.3 -1.6z"/>
  <path d="M64.1 41.4 c1.7 -4 2.5 -4.8 3.2 -3.2 0.2 0.8 -0.6 2.5 -2 3.8 l-2.4 2.3 1.2 -2.9z"/>
  <path d="M68.1 36.6 c-1 -1.2 -0.6 -2.7 1.8 -7.3 1.6 -3.2 3.3 -6.7 3.6 -7.8 0.5 -1.3 0.9 -1.6 1.2 -0.7 0.3 0.7 -0.3 2.4 -1.2 3.8 -0.9 1.4 -1.4 3.2 -1.1 4 0.3 0.8 0.2 1.3 -0.3 0.9 -0.5 -0.3 -1.7 0.9 -2.5 2.6 -1.2 2.4 -1.3 3.5 -0.5 4.5 0.6 0.8 0.9 1.4 0.6 1.4 -0.2 0 -1 -0.6 -1.6 -1.4z"/>
  <path d="M70.6 36.4 c-0.8 -2 -0.4 -2.5 1.1 -1.6 0.7 0.4 0.9 1.3 0.4 2.1 -0.6 1 -1 0.9 -1.5 -0.5z"/>
  <path d="M89.5 29.5 c0 -1.8 0.3 -3.1 0.6 -2.9 0.4 0.2 0.7 1.5 0.7 2.9 0 1.4 -0.3 2.7 -0.7 2.9 -0.3 0.2 -0.6 -1.1 -0.6 -2.9z"/>
  <path d="M83.4 28.5 c1.1 -0.8 2.4 -1.5 3 -1.5 0.5 0 0.1 0.7 -1 1.5 -1 0.8 -2.3 1.4 -2.9 1.4 -0.5 0 -0.1 -0.6 0.9 -1.4z"/>
  <path d="M88.5 19.7 c-2.2 -1.6 -4.7 -3.2 -5.5 -3.7 -0.8 -0.5 -1.2 -1.2 -0.8 -1.5 0.4 -0.4 1.7 0.2 2.9 1.4 1.3 1.2 2.9 2.1 3.6 2.1 0.7 0 1.3 0.5 1.3 1.1 0 0.8 1.1 0.9 3.3 0.5 2 -0.4 2.7 -0.3 1.8 0.3 -0.7 0.5 -1.1 1.3 -0.8 1.8 1.2 1.9 -1.9 0.9 -5.8 -2z"/>
  <path d="M96.9 14 c-3.1 -2.5 -1.2 -2.6 2.1 0 1.4 1.1 2 2 1.4 2 -0.7 0 -2.2 -0.9 -3.5 -2z"/>
  <path d="M91.5 10.4 c-1.1 -0.9 -2.9 -2.2 -4 -3 -1.6 -1.1 -1.7 -1.6 -0.6 -2.6 0.9 -0.8 1.2 -0.9 0.7 -0.1 -0.3 0.6 0.8 2 2.9 3.3 1.9 1.2 3.5 2.6 3.5 3.1 0 1.2 -0.1 1.1 -2.5 -0.7z"/>
 </g>
 <g fill="none" stroke="#896a3d" stroke-width="1">
  <path d="M99.5 168 c-0.4 -0.6 0.7 -1 2.7 -0.9 2.7 0 3 0.2 1.3 0.9 -2.7 1.2 -3.3 1.2 -4 0z"/>
  <path d="M41 163 c1.9 -0.5 4.1 -0.4 5 0 1 0.6 -0.1 0.9 -3.5 0.9 -4.8 -0.1 -4.9 -0.1 -1.5 -0.9z"/>
  <path d="M76.6 148.3 c-0.4 -0.5 -1.3 -0.8 -1.8 -0.8 -0.6 0 -1.3 -0.6 -1.6 -1.3 -0.3 -1 0.2 -1 2.2 -0.1 1.4 0.7 2.6 1.6 2.6 2.1 0 1 -0.4 1 -1.4 0.1z"/>
  <path d="M66.2 145 c-1.8 -0.4 -3.6 -1.1 -4 -1.5 -1 -1.2 6.1 0.4 7.2 1.5 0.6 0.6 0.8 1 0.6 0.9 -0.3 -0.1 -2 -0.5 -3.8 -0.9z"/>
  <path d="M40.7 124.1 c-2.1 -1.1 -4.9 -1.8 -6.2 -1.6 -1.4 0.1 -2.5 -0.2 -2.5 -0.6 0 -0.5 -1.4 -0.9 -3.2 -0.9 -1.7 0 -2.9 -0.2 -2.6 -0.5 0.7 -0.7 4.8 -0.8 8.8 -0.1 6 1 12.4 1.8 14.5 1.8 l2 -0.1 -2 1.6 c-1.9 1.4 -1.9 1.5 1.2 1.1 1.8 -0.2 3 -0.1 2.7 0.4 -1 1.5 -8.9 0.8 -12.7 -1.1z"/>
  <path d="M63.5 97.2 c-1.1 -0.2 -3.1 -0.9 -4.4 -1.4 -2.3 -0.8 -2.3 -0.9 -0.6 -2.2 1.5 -1.1 2.3 -1.1 4.6 0.1 4.6 2.3 4.9 4.5 0.4 3.5z"/>
  <path d="M43.7 85.6 c-0.4 -0.9 -1.3 -1.6 -2.2 -1.6 -0.8 0 -1.5 -0.5 -1.5 -1.1 0 -0.6 0.9 -0.8 2.3 -0.4 3.1 1 3.8 1.8 2.8 3.3 -0.7 1.1 -0.9 1 -1.4 -0.2z"/>
  <path d="M88.2 58.8 c-1.3 -1.5 -2.2 -2.8 -1.9 -2.8 1 0 4.9 4 4.5 4.8 -0.1 0.5 -1.3 -0.4 -2.6 -2z"/>
 </g>
 <g fill="none" stroke="#9a7538" stroke-width="1">
  <path d="M102.1 170.1 c-0.8 -0.5 -0.9 -1.1 -0.3 -1.5 1.4 -0.8 4.3 0.4 3.6 1.5 -0.7 1.1 -1.5 1.1 -3.3 0z"/>
  <path d="M84.7 168.1 c-0.7 -0.8 -0.7 -1.2 -0.1 -0.9 0.5 0.4 3.8 0.8 7.2 0.9 7.6 0.3 7.3 1.3 -0.4 1.3 -3.7 0.1 -6 -0.4 -6.7 -1.3z"/>
  <path d="M73.9 167.5 c-0.3 -0.2 -4.7 -0.5 -9.7 -0.6 -5.1 -0.1 -9 -0.5 -8.7 -0.9 0.3 -0.5 -2.2 -0.7 -5.5 -0.5 -3.4 0.2 -6.2 -0.1 -6.6 -0.7 -0.7 -1.2 28.5 0 30.1 1.2 0.6 0.5 2.6 1 4.5 1.3 l3.5 0.4 -3.6 0.1 c-2 0.1 -3.8 0 -4 -0.3z"/>
  <path d="M50 129.6 c-1.2 -3.3 -1.2 -3.6 -0.1 -3.6 0.9 0 2.2 5.2 1.5 5.9 -0.2 0.2 -0.8 -0.8 -1.4 -2.3z"/>
  <path d="M36.2 124.8 c0.2 -0.6 1 -1.4 1.6 -1.6 0.7 -0.2 1 0.2 0.6 1.2 -0.7 1.8 -2.8 2.2 -2.2 0.4z"/>
  <path d="M27.3 123.3 c-5.6 -1.9 -5.5 -2.9 0.2 -2.5 3.3 0.3 4.5 0.8 4.6 2.1 0 1 0.2 1.1 0.6 0.4 0.2 -0.7 0.9 -1.3 1.5 -1.3 0.6 0 0.6 0.6 -0.2 1.5 -1.5 1.8 -1.3 1.8 -6.7 -0.2z"/>
  <path d="M97.6 81.2 c-0.8 -1.6 -2.2 -3.4 -3 -4.1 -0.9 -0.8 -1.6 -1.7 -1.6 -2.2 0 -0.9 4.3 3.2 4.8 4.6 0.2 0.6 0.8 1.8 1.3 2.8 0.5 0.9 0.7 1.7 0.5 1.7 -0.3 0 -1.2 -1.3 -2 -2.8z"/>
 </g>
 <g fill="none" stroke="#8e744d" stroke-width="1">
  <path d="M111.3 170 c-3.4 -0.3 -6.5 -0.9 -7 -1.4 -0.4 -0.4 2.2 -0.6 6 -0.3 6 0.4 8.9 1.1 7.6 2 -0.2 0.1 -3.2 0 -6.6 -0.3z"/>
  <path d="M82.5 167 c-2.6 -0.7 -2.3 -0.8 2 -0.8 2.8 0 7.3 0.3 10 0.8 5 0.7 5 0.7 -2 0.7 -3.8 0.1 -8.3 -0.3 -10 -0.7z"/>
  <path d="M74.5 166 c-1.7 -0.7 -1.4 -0.9 1.3 -0.9 2 -0.1 3.1 0.3 2.7 0.9 -0.7 1.2 -1.3 1.2 -4 0z"/>
  <path d="M52 164 c-5.4 -0.7 -5.4 -0.7 -1 -0.7 2.5 0 7.4 0.3 11 0.7 l6.5 0.7 -5.5 0 c-3 0 -8 -0.3 -11 -0.7z"/>
  <path d="M31.7 162.9 c-3.2 -0.4 -6 -0.9 -6.2 -1.1 -0.5 -0.5 15.1 0.1 17 0.6 2.6 0.7 -5.6 1.1 -10.8 0.5z"/>
  <path d="M25 119.9 c0 -0.5 1.1 -0.9 2.5 -0.9 1.4 0 2.5 0.2 2.5 0.4 0 0.2 -1.1 0.6 -2.5 0.8 -1.4 0.3 -2.5 0.1 -2.5 -0.3z"/>
 </g>
 <g fill="none" stroke="#a37d46" stroke-width="1">
  <path d="M117 172.9 c-2.5 -0.6 -6.4 -0.8 -8.6 -0.7 -2.9 0.2 -4 -0.1 -3.7 -0.9 0.6 -1.5 19.2 -0.8 20.7 0.8 0.8 0.9 0.4 1 -1.7 0.5 -1.9 -0.4 -2.6 -0.3 -2.2 0.4 0.3 0.5 0.5 1 0.3 0.9 -0.2 -0.1 -2.3 -0.5 -4.8 -1z"/>
  <path d="M65 169.8 c0 -0.5 0.5 -0.8 1.1 -0.8 0.5 0 0.7 -0.4 0.4 -1 -0.7 -1.2 16.7 -0.6 18.6 0.6 0.7 0.4 3.4 0.7 5.9 0.7 l4.5 -0.2 -5 0.9 c-2.9 0.5 -5.4 0.5 -5.9 0 -0.5 -0.5 -2.2 -0.6 -3.7 -0.3 -1.5 0.3 -4.2 0 -6 -0.6 -2.6 -0.9 -3 -0.8 -2.5 0.4 0.4 1.1 -0.3 1.4 -3.4 1.2 -2.2 -0.1 -4 -0.5 -4 -0.9z"/>
  <path d="M96.7 169.6 c-0.7 -1.6 2 -1.5 5 0.3 1.5 0.9 1.3 1 -1.3 1.1 -1.9 0 -3.4 -0.6 -3.7 -1.4z"/>
  <path d="M36.2 166.2 c-0.7 -0.2 -1 -0.8 -0.6 -1.3 0.6 -1.1 -1.9 -1.2 -3 -0.2 -0.9 0.9 -8.6 1 -8 0.1 0.2 -0.3 -0.2 -0.8 -0.8 -1.1 -0.7 -0.2 -1 -0.7 -0.7 -1.1 0.8 -0.8 19 1.4 20.4 2.4 0.6 0.5 3.6 0.7 6.8 0.5 3.5 -0.2 5.5 0 5.1 0.6 -0.5 0.9 -16.5 1 -19.2 0.1z"/>
  <path d="M91.2 138 c-2.1 -1.7 -2.1 -1.9 -0.3 -1.7 1.1 0 1.8 0.4 1.5 0.8 -0.2 0.4 0.2 0.9 0.8 1.2 0.7 0.2 1.1 0.7 0.8 1 -0.3 0.3 -1.5 -0.3 -2.8 -1.3z"/>
  <path d="M44.6 128.2 c-0.3 -0.5 -1.8 -0.7 -3.4 -0.4 -3.3 0.4 -4.5 -0.7 -3.1 -2.8 0.6 -1 1.2 -1.1 1.7 -0.5 0.7 1 1 1.1 6.1 1.4 3.6 0.1 5.2 3.1 1.6 3.1 -1.3 0 -2.6 -0.4 -2.9 -0.8z"/>
  <path d="M32.7 124.7 c-0.3 -0.8 0.4 -1.4 1.9 -1.5 1.7 -0.1 2.2 0.2 1.8 1.3 -0.7 1.8 -3 2 -3.7 0.2z"/>
  <path d="M22.6 122.5 c-1.8 -2.8 -2 -3.5 -0.7 -3.5 0.5 0 1.2 1.2 1.5 2.6 0.5 2 1.1 2.4 2.8 1.8 1.4 -0.4 1.8 -0.2 1.4 0.5 -1.2 1.8 -3.3 1.2 -5 -1.4z"/>
  <path d="M60.1 98.8 c-2.4 -0.5 -4 -1.3 -3.5 -1.8 1 -1 8.4 1 8.4 2.2 0 0.5 -0.1 0.8 -0.2 0.7 -0.2 -0.1 -2.3 -0.6 -4.7 -1.1z"/>
  <path d="M50.6 97.5 c-2.5 -1.9 -1.6 -1.9 2 0 1.6 0.8 2.2 1.5 1.4 1.5 -0.8 -0.1 -2.4 -0.7 -3.4 -1.5z"/>
  <path d="M40 84.7 c-0.8 -0.7 -1.6 -2 -1.6 -2.9 -0.2 -2.5 0.2 -2.2 2 1.2 0.8 1.7 1.4 3 1.3 3 -0.1 0 -0.9 -0.6 -1.7 -1.3z"/>
  <path d="M99.3 84.4 c0.3 -0.4 0.2 -1.6 -0.4 -2.8 -1 -2 -1 -2 0.5 -0.2 1.9 2.4 2 3.6 0.4 3.6 -0.6 0 -0.8 -0.3 -0.5 -0.6z"/>
  <path d="M82 73.6 c0 -0.2 1.3 -0.6 2.9 -0.8 1.7 -0.2 2.8 -0.1 2.5 0.4 -0.5 0.8 -5.4 1.2 -5.4 0.4z"/>
 </g>
 <g fill="none" stroke="#b28743" stroke-width="1">
  <path d="M117.7 174.6 c-0.6 -1.6 3.3 -2.7 6.4 -1.9 1.5 0.4 1.7 0.8 0.8 1.9 -1.7 2.1 -4.2 1.8 -3.5 -0.3 0.6 -1.7 0.5 -1.7 -0.8 0 -1.6 2.1 -2.2 2.1 -2.9 0.3z"/>
  <path d="M104.6 174.2 c-0.5 -0.5 -8.5 -1.5 -11.3 -1.5 -1.3 0.1 -2 -0.3 -1.7 -0.8 0.3 -0.5 0.1 -0.9 -0.5 -0.9 -0.5 0 -1.3 0.5 -1.6 1 -0.4 0.6 -1 0.8 -1.5 0.5 -0.4 -0.2 -4.8 -0.6 -9.6 -0.7 -4.9 -0.1 -8.1 -0.3 -7.2 -0.5 1 -0.3 1.5 -1 1.1 -1.8 -0.4 -1.2 0 -1.3 2.6 -0.4 1.8 0.6 4.5 0.9 6.1 0.5 1.6 -0.3 3.2 -0.1 3.6 0.5 0.3 0.6 1.8 0.8 3.2 0.4 3 -0.7 17.4 0.4 16.8 1.4 -0.2 0.3 2.1 0.6 5.2 0.6 3 0 5.7 0.5 5.9 1 0.3 0.9 -10.3 1.6 -11.1 0.7z"/>
  <path d="M56.9 170.6 c-0.6 -0.6 -21 -2.4 -28 -2.5 -2.7 -0.1 -3.8 -0.6 -4.2 -2 -0.3 -1.3 0 -1.8 0.8 -1.5 1.6 0.7 9 1.4 21 2 5.8 0.4 10.3 1.1 10.7 1.7 0.6 0.9 0.8 0.9 0.8 0.1 0 -0.7 1.6 -1 4.3 -0.9 5.3 0.4 5.1 0.2 3.3 2 -1.3 1.3 -7.6 2.1 -8.7 1.1z"/>
  <path d="M21.3 157.4 c0.2 -2.1 0.8 -3.9 1.4 -4.1 0.9 -0.3 0.9 0.6 0.1 3.4 -1.4 5.1 -1.7 5.3 -1.5 0.7z"/>
  <path d="M64 146 c-1.3 -0.9 -1.3 -1 0 -0.9 0.8 0 2.4 0.4 3.5 0.9 l2 0.9 -2 0 c-1.1 0 -2.7 -0.4 -3.5 -0.9z"/>
  <path d="M56.4 144.8 c-1 -1.5 0.1 -1.9 2.6 -1 l2.4 0.9 -2.2 0.5 c-1.2 0.4 -2.5 0.2 -2.8 -0.4z"/>
  <path d="M52.8 140.3 c-0.8 -1.6 -1.3 -3.4 -1.1 -4 0.3 -0.7 0 -1.3 -0.6 -1.3 -0.6 0 -1.1 -0.4 -1.1 -1 0 -2 2.9 0.3 3.6 2.8 1 3.6 1.4 6.2 1.1 6.2 -0.1 0 -1 -1.2 -1.9 -2.7z"/>
  <path d="M90 139.5 c-0.7 -0.9 -1 -1.8 -0.7 -2.2 0.8 -0.7 3.7 1.5 3.7 2.8 0 1.4 -1.6 1.1 -3 -0.6z"/>
  <path d="M48.6 131.1 c-0.3 -0.5 -3.7 -1.2 -7.6 -1.6 -3.9 -0.4 -7.3 -1.1 -7.6 -1.6 -0.3 -0.5 -1.5 -0.9 -2.7 -0.9 -1.8 0 -1.9 -0.2 -0.7 -1 1.6 -1 5.7 -0.3 7.7 1.3 0.7 0.5 2.4 0.7 3.8 0.5 1.4 -0.3 2.8 -0.1 3.1 0.3 0.3 0.5 1.6 0.9 2.9 0.9 1.2 0 2.5 0.7 2.9 1.5 0.6 1.6 -0.9 2.1 -1.8 0.6z"/>
  <path d="M22.4 123.5 c-0.9 -1.4 -2 -2.2 -2.5 -1.9 -0.5 0.3 -0.9 0.2 -1 -0.3 0 -0.4 -0.2 -1.8 -0.5 -3 -0.2 -1.2 0 -3.2 0.6 -4.5 0.8 -2.2 0.9 -2.2 0.9 0.5 0.1 3.8 3.2 10.2 4.1 8.7 0.5 -0.8 1 -0.9 1.4 -0.2 0.3 0.6 0 1.3 -0.6 1.6 -0.7 0.3 0.3 0.3 2.2 0 2.6 -0.4 3.1 -0.3 2 0.5 -2.5 1.8 -4.9 1.2 -6.6 -1.4z"/>
  <path d="M104.2 100 c0 -1.9 0.2 -2.7 0.5 -1.7 0.2 0.9 0.2 2.5 0 3.5 -0.3 0.9 -0.5 0.1 -0.5 -1.8z"/>
  <path d="M58 99 c-1.1 -0.8 -0.7 -0.9 1.5 -0.4 3.7 0.8 4.5 1.4 1.9 1.4 -1 0 -2.6 -0.5 -3.4 -1z"/>
  <path d="M47.9 97 l-2.4 -2.1 3.3 1.6 c3.1 1.5 4.1 2.5 2.3 2.5 -0.5 0 -1.9 -0.9 -3.2 -2z"/>
  <path d="M102.7 95.3 c-0.2 -0.4 -0.7 -2.1 -1.1 -3.8 -0.4 -1.6 -1.5 -3.9 -2.4 -4.9 -1.6 -1.8 -1.6 -1.8 0.6 -0.5 1.2 0.8 2.7 3.1 3.3 5.3 0.9 3.5 0.7 5.9 -0.4 3.9z"/>
  <path d="M40 86.4 c-2.9 -2.9 -2.2 -3.1 2 -0.6 1.6 1 2.7 2.2 2.3 2.5 -1 1.1 -1.6 0.8 -4.3 -1.9z"/>
  <path d="M95 80 c-1.1 -1.1 -2.5 -2 -3.1 -2 -0.5 0 -0.7 -0.4 -0.4 -1 0.3 -0.5 0 -1 -0.8 -1 -0.8 0 -1.8 -0.7 -2.1 -1.5 -0.9 -2.4 4.3 0.9 7.2 4.6 2.7 3.3 2.2 3.9 -0.8 0.9z"/>
  <path d="M48 74 c-0.1 -0.8 -0.3 -2.5 -0.4 -3.7 -0.2 -1.3 0.1 -2.3 0.5 -2.3 1.1 0 1.6 3.4 0.8 5.5 -0.5 1.4 -0.8 1.5 -0.9 0.5z"/>
  <path d="M155 9.6 c0 -0.8 0.5 -1.8 1 -2.1 0.6 -0.3 1 0.3 1 1.4 0 1.2 -0.4 2.1 -1 2.1 -0.5 0 -1 -0.6 -1 -1.4z"/>
  <path d="M151.5 6.6 c-1.3 -1.5 -3.5 -5.4 -3.5 -6.1 0 -0.3 2 -0.5 4.5 -0.5 4.3 0 4.5 0.1 4.5 3 0 2.3 -0.5 3 -1.9 3 -1.1 0 -2.1 0.4 -2.3 0.9 -0.1 0.5 -0.7 0.4 -1.3 -0.3z"/>
 </g>
 <g fill="none" stroke="#a28758" stroke-width="1">
  <path d="M54.1 98.1 c-1 -0.6 -1 -1 -0.1 -1.6 1.3 -0.8 2.4 -0.1 1.9 1.4 -0.3 0.6 -1 0.7 -1.8 0.2z"/>
 </g>
 <g fill="none" stroke="#c39342" stroke-width="1">
  <path d="M20.5 153 c-1 -1.6 1.5 -5.9 3.6 -6 0.3 0 0.4 1.3 0.1 2.9 -0.4 2.9 -2.6 4.8 -3.7 3.1z"/>
  <path d="M50.1 137.7 c-0.6 -0.8 -0.8 -1.7 -0.4 -2 1.2 -1.3 2.2 -0.7 2 1.3 -0.2 2.4 -0.1 2.4 -1.6 0.7z"/>
  <path d="M19.5 124.4 c-0.9 -1.4 -1.7 -3.4 -1.8 -4.5 -0.1 -1 -0.6 -1.9 -1.3 -1.9 -1.6 0 -0.7 -6.8 1.3 -9.4 1.1 -1.5 1.4 -1.6 1 -0.3 -0.4 0.9 -0.2 1.7 0.4 1.7 0.6 0 0.7 0.9 0.3 2.3 -1.4 4.1 -1.2 7.7 0.4 9.3 0.9 0.9 1.7 2.5 1.7 3.5 0.2 2.5 0.1 2.4 -2 -0.7z"/>
  <path d="M95.4 120 c0.3 -0.8 0.9 -2.3 1.2 -3.2 0.3 -0.9 1.3 -1.9 2.1 -2.2 0.9 -0.4 0.7 0.5 -0.8 2.7 -2.8 4 -3.3 4.6 -2.5 2.7z"/>
  <path d="M101.4 103.8 c-0.5 -0.7 -0.7 -2.7 -0.5 -4.5 0.4 -4.8 -0.9 -9.9 -2 -8.2 -1.1 1.7 -1 0.1 0.1 -2.6 0.7 -1.9 0.9 -1.8 1.9 0.8 0.6 1.6 1.1 3.4 1.1 4.2 0 0.8 0.5 1.7 1 2 1.3 0.8 1.3 8.2 0.1 9 -0.5 0.3 -1.3 0 -1.7 -0.7z"/>
  <path d="M43 91.3 c0 -1.6 -0.2 -1.6 -1.1 -0.3 -0.9 1.3 -1 1.3 -0.6 0 0.2 -0.8 -0.3 -2.4 -1.2 -3.4 -1.6 -1.9 -1.6 -1.9 1.1 0 2.3 1.6 3.9 5.4 2.3 5.4 -0.3 0 -0.5 -0.8 -0.5 -1.7z"/>
  <path d="M96.2 83.9 c-1.5 -2.3 -1.5 -2.9 -0.2 -2.9 1.3 0 3.2 3.8 2.2 4.4 -0.4 0.2 -1.3 -0.4 -2 -1.5z"/>
  <path d="M89 77.5 c0 -0.8 0.6 -1.5 1.3 -1.5 0.8 0 1.4 0.7 1.4 1.5 0 0.8 -0.6 1.5 -1.4 1.5 -0.7 0 -1.3 -0.7 -1.3 -1.5z"/>
  <path d="M45 73 c-1.2 -0.8 -1.1 -1 0.8 -1 1.2 0 2.2 0.5 2.2 1 0 1.3 -1.1 1.3 -3 0z"/>
  <path d="M46 69.8 c0 -0.7 0.4 -1.9 0.9 -2.7 0.6 -0.9 0.9 -0.5 0.9 1.3 0 1.4 -0.4 2.6 -0.9 2.6 -0.5 0 -0.9 -0.6 -0.9 -1.2z"/>
  <path d="M49.7 58.4 c-0.4 -0.4 -0.7 -1.2 -0.7 -1.8 0 -0.6 0.5 -0.4 1 0.4 0.8 1.3 1 1.2 1 -0.2 0 -1 0.4 -1.8 0.9 -1.8 0.5 0 1.2 -1 1.4 -2.2 0.4 -2 0.4 -2 0.5 -0.3 0.2 2.3 -3 6.9 -4.1 5.9z"/>
  <path d="M152.6 43.1 c-0.4 -0.6 -0.4 -1.6 -0.1 -2.1 0.7 -1.1 -3.4 -11 -4.6 -11 -0.3 0 -1.2 -1.5 -2 -3.2 -0.7 -1.8 -1.6 -3.5 -1.9 -3.8 -0.3 -0.3 -1.2 -2.5 -2 -4.9 -0.8 -2.4 -2.3 -5.5 -3.3 -6.8 -1.1 -1.4 -2 -3.8 -1.9 -5.4 0 -1.8 -0.4 -2.9 -1.2 -2.9 -0.8 0 -1.9 -0.7 -2.6 -1.5 -1.1 -1.3 -0.2 -1.5 6.7 -1.5 7.7 0 8 0.1 9.4 2.7 1.7 3.4 3.9 5.8 3.9 4.4 0 -0.6 0.9 -1.1 2 -1.1 1.8 0 1.9 0.2 0.8 2.1 -1 1.7 -1 2.3 0 2.6 0.9 0.4 1.2 4.5 1.1 16.6 -0.1 8.9 -0.4 15.3 -0.6 14.3 -0.5 -1.9 -0.6 -1.8 -1.8 0.3 -0.8 1.5 -1.5 2 -1.9 1.2z"/>
  <path d="M7.6 39.8 c-0.9 -1.2 -1.6 -3.3 -1.6 -4.5 0 -2.3 -0.1 -2.3 -3 -0.8 l-3 1.6 0 -18.1 0 -18 19.4 0 c16.4 0 19.6 0.2 20.7 1.6 1 1.3 1 1.7 -0.2 2.4 -0.8 0.5 -1.4 1.4 -1.4 1.9 0 1.5 -4.7 5.6 -6.5 5.6 -0.9 0 -1.4 0.8 -1.3 2.2 0.2 1.5 -0.7 2.8 -2.7 4 -1.7 0.9 -3 2.3 -3 3 0 0.7 -0.4 1.3 -0.9 1.3 -1.3 0 -2.4 7.2 -1.3 7.9 0.7 0.4 0.5 1.9 -0.4 4 -1.4 3.3 -1.5 3.3 -3.4 1.6 -1.7 -1.6 -2 -1.6 -2 -0.2 0 1.1 -1.2 1.7 -4.2 2 -4.1 0.3 -4.1 0.4 1 0.5 5.6 0.2 6 0.5 3.8 2.8 -2.3 2.3 -8.2 1.8 -10 -0.8z m9.4 -13.8 c0 -0.5 -0.7 -1 -1.5 -1 -0.8 0 -1.5 0.5 -1.5 1 0 0.6 0.7 1 1.5 1 0.8 0 1.5 -0.4 1.5 -1z"/>
  <path d="M42 1 c-1.2 -0.8 -1.1 -1 0.8 -1 1.2 0 2.2 0.5 2.2 1 0 1.3 -1.1 1.3 -3 0z"/>
 </g>
 <g fill="none" stroke="#bb9455" stroke-width="1">
  <path d="M118.6 178.3 c-0.2 -0.3 -2.9 -0.6 -5.9 -0.9 -3.1 -0.2 -8.4 -0.8 -12 -1.4 -3.5 -0.5 -11 -1.2 -16.7 -1.5 -5.7 -0.3 -10.6 -0.8 -11 -1 -1.1 -0.7 -21 -2.5 -34.5 -3 -10.6 -0.5 -13.3 -0.9 -14.8 -2.4 -2.4 -2.3 -4.9 -11.9 -3.7 -14 0.7 -1.2 0.9 -0.4 1 2.7 0 2.3 0.4 4.2 0.8 4.2 0.4 0 1.4 1.6 2.1 3.5 1.1 3.1 1.6 3.5 4.9 3.6 6.3 0.1 23.5 1.6 28.2 2.4 1.4 0.2 7.9 0.7 14.5 1 17.3 0.8 26.6 1.5 30 2.1 5.6 1 14.5 0.9 14.5 -0.1 0 -0.5 0.7 -0.1 1.6 1 1.3 1.7 1.6 1.8 2.4 0.5 0.7 -1 1 -1.1 1 -0.2 0 2.4 3.1 1.2 5 -2 1.1 -1.8 2.1 -3 2.1 -2.5 0.5 2.6 0.2 3.4 -1.6 5.3 -1.9 2 -6.9 3.7 -7.9 2.7z"/>
  <path d="M54.8 147.3 c0.6 -0.2 1 -0.9 0.7 -1.4 -0.4 -0.5 0.1 -0.6 0.9 -0.3 2 0.8 1.1 2.4 -1.2 2.3 -1.1 0 -1.2 -0.2 -0.4 -0.6z"/>
  <path d="M109.3 137 c0.1 -2 1.2 -2.6 2 -1.2 0.3 0.4 -0.1 1.3 -0.8 1.9 -1.1 1 -1.3 0.9 -1.2 -0.7z"/>
  <path d="M44.7 131.9 c-1 -0.6 -2.5 -0.8 -3.2 -0.5 -0.8 0.3 -1.7 0.1 -2.1 -0.5 -0.3 -0.5 -1.4 -0.7 -2.4 -0.4 -1 0.3 -2.5 -0.1 -3.3 -1 -1.2 -1.1 -1.6 -1.2 -2 -0.2 -0.3 0.9 -0.9 0.8 -2.3 -0.4 -1 -0.9 -2.4 -1.5 -3 -1.2 -0.6 0.2 -1.9 -0.7 -3 -1.9 -1 -1.2 -1.2 -1.8 -0.4 -1.2 0.8 0.6 3.3 1.5 5.5 1.9 2.2 0.4 4.4 1 5 1.3 0.5 0.4 4.1 1.2 7.9 1.7 3.9 0.6 7.1 1.6 7.4 2.3 0.5 1.5 -1.6 1.5 -4.1 0.1z"/>
  <path d="M79.3 129.2 c-1.3 -0.2 -2.3 -0.7 -2.3 -1.2 0 -0.4 0.9 -0.6 2 -0.3 1.2 0.3 2 0 2 -0.6 0 -0.7 -0.4 -1 -0.9 -0.6 -0.5 0.3 -1.2 0.1 -1.6 -0.5 -0.7 -1.1 0.7 -1.2 4.3 -0.1 2.3 0.6 2.3 0.7 0.5 2.2 -1 0.8 -2.8 1.3 -4 1.1z"/>
  <path d="M57.4 102.6 c-1.1 -0.8 -3.8 -1.9 -5.9 -2.5 -4.2 -1.1 -8.6 -6.3 -6.5 -7.6 0.5 -0.3 1 0.3 1 1.4 0 1.1 1.1 2.8 2.4 3.6 2.2 1.5 3.2 1.7 7.6 1.5 0.8 -0.1 3.1 0.3 5 0.7 2.4 0.7 4.3 0.5 6 -0.4 1.4 -0.7 1.9 -1.3 1.2 -1.3 -0.7 0 -1 -0.5 -0.6 -1.1 0.8 -1.4 2.4 0.9 1.8 2.6 -0.5 1.3 -6.7 4.5 -8.7 4.5 -0.7 0 -2.2 -0.6 -3.3 -1.4z"/>
  <path d="M70 86.2 c0 -1.7 3.8 -4.4 4.5 -3.2 0.4 0.6 0.5 1.2 0.4 1.3 -0.2 0.1 -1.4 0.8 -2.6 1.5 -1.3 0.7 -2.3 0.8 -2.3 0.4z"/>
  <path d="M91.6 81.4 c-0.9 -2.4 1.2 -4.4 2.4 -2.4 0.5 0.8 0.8 1.9 0.7 2.4 -0.6 1.7 -2.4 1.7 -3.1 0z"/>
  <path d="M77 74.8 c0 -0.5 2.7 -0.8 6 -0.8 3.6 0 6 0.4 6 1.1 0 0.6 -2.2 0.9 -6 0.7 -3.3 -0.1 -6 -0.6 -6 -1z"/>
 </g>
 <g fill="none" stroke="#cc9f54" stroke-width="1">
  <path d="M0 107.5 l0 -71.4 3 -1.6 c2.9 -1.5 3 -1.5 3 0.8 0 3.9 2.7 6.7 6.6 6.7 3.1 0 6.4 -1.8 6.4 -3.4 0 -0.3 -2.4 -0.7 -5.2 -0.8 -5.1 -0.1 -5.1 -0.2 -1 -0.5 3 -0.3 4.2 -0.9 4.2 -2 0 -1.4 0.3 -1.4 2 0.2 1.9 1.7 2 1.7 3.4 -1.6 0.9 -2.1 1.1 -3.6 0.4 -4 -1.1 -0.7 0 -7.9 1.3 -7.9 0.5 0 0.9 -0.6 0.9 -1.3 0 -0.7 1.3 -2.1 3 -3 2 -1.2 2.9 -2.5 2.7 -4 -0.1 -1.4 0.4 -2.2 1.3 -2.2 1.8 0 6.5 -4.1 6.5 -5.6 0 -0.5 0.6 -1.4 1.4 -1.9 1.3 -0.7 1.3 -1.1 0 -2.6 -1.5 -1.9 -1.6 -1.9 3.6 0.2 0.8 0.3 1.5 0.1 1.5 -0.5 0 -0.8 5.4 -1.1 17.8 -1 9.7 0.1 16.7 0.4 15.5 0.6 -1.3 0.2 -2.3 0.8 -2.3 1.3 0 0.5 -1 1 -2.2 1.2 -1.5 0.2 -2.2 0.9 -2.2 2 0.1 1.2 -0.8 1.9 -3 2.3 -2.6 0.5 -3.6 1.5 -5 4.8 -1 2.3 -2.3 4.6 -3 5 -0.8 0.6 -0.8 1 0.2 1.4 0.6 0.2 1.2 1.1 1.2 1.9 0 0.8 0.4 1.4 1 1.4 0.5 0 0.7 0.6 0.4 1.3 -0.3 0.8 0.1 1.9 0.9 2.5 1.1 0.9 1.3 -0.1 1.1 -5.8 -0.1 -5.2 0.2 -7 1.2 -7 0.7 0 1.9 1 2.5 2.2 0.7 1.3 1.7 2.6 2.3 3 0.7 0.5 0.3 0.8 -0.9 0.8 -1.7 0 -1.8 0.2 -0.5 1.1 1.2 0.9 1.1 1 -0.7 0.6 -2.8 -0.6 -3.6 0.4 -1.7 2.1 1 1 1.4 1 1.4 0.1 0 -0.7 0.2 -1 0.5 -0.7 1 0.9 -0.7 3.8 -1.8 3.1 -0.6 -0.4 -0.8 0 -0.4 1 0.5 1.4 -1.6 7 -3.3 8.7 -0.8 0.8 -4 8 -4 8.9 0 0.5 -1.2 3 -2.7 5.6 -2.3 4.2 -2.8 4.6 -3.5 2.9 -0.7 -1.6 -0.8 -1.6 -0.7 0.6 0.2 4.5 -0.1 6 -1.1 6 -0.7 0 -0.7 -0.6 0 -2 0.7 -1.4 0.7 -2 0 -2 -0.5 0 -1 0.8 -1 1.8 0 1.4 -0.2 1.4 -0.9 0.3 -0.7 -1 -0.9 -0.6 -1 1.5 -0.1 5.9 -0.2 6.7 -1.7 8.2 -0.9 0.8 -1.4 2.2 -1.1 3.2 0.3 1.1 -0.6 2.1 -2.7 3 -4 1.8 -5.6 3.4 -5.6 5.7 0 1.5 -0.2 1.5 -0.9 0.3 -0.6 -0.8 -0.8 -1.7 -0.6 -2 0.2 -0.4 -0.2 -0.7 -1 -0.7 -1.1 0 -1.2 0.4 -0.4 1.4 0.6 0.7 0.9 2 0.5 2.8 -0.3 0.8 -0.1 1.5 0.4 1.5 0.6 0 1 0.4 1 1 0 1.5 3.3 5 4.2 4.4 0.5 -0.3 0.7 -0.2 0.6 0.3 -0.3 1.2 3.1 7.8 5.4 10.3 1.3 1.4 2.8 2 4.4 1.7 1.3 -0.2 2.1 0 1.8 0.4 -0.3 0.5 0.2 0.9 1 0.9 0.9 0 1.6 0.4 1.6 0.9 0 1.9 5.8 2.2 9.2 0.5 3.9 -2 4.8 -3.2 4 -5.2 -0.4 -1.1 -0.1 -1.4 1.1 -0.9 1.2 0.4 1.8 0 2.1 -1.6 0.8 -3.8 0.3 -5.7 -1.3 -5.5 -0.9 0.2 -1.7 -0.6 -1.9 -1.7 -0.3 -1.6 -0.1 -1.8 0.9 -0.8 0.7 0.7 1.8 1.3 2.3 1.3 0.6 0 0.4 -0.4 -0.4 -1 -1.2 -0.7 -1.1 -1 0.5 -1.6 1.1 -0.4 2.3 -1.2 2.7 -1.8 0.5 -0.7 0.8 -0.7 0.8 0.2 0 0.6 0.4 1.2 1 1.2 0.5 0 0.7 -0.7 0.4 -1.5 -0.3 -0.8 -0.2 -2 0.2 -2.7 0.5 -0.7 0.7 -2.4 0.5 -3.7 -0.2 -1.9 0.1 -2.2 1.4 -1.7 0.9 0.3 3.4 0.6 5.6 0.6 2.8 0 3.9 0.4 3.9 1.5 0 0.8 0.4 1.5 0.9 1.5 0.5 0 1.3 0.9 1.6 2.1 0.4 1.1 1.3 1.8 2 1.5 2.2 -0.8 5.8 4.2 5.1 7.3 -0.5 1.7 -0.4 2.2 0.3 1.2 1.1 -1.7 2.4 3.2 2 8.1 -0.1 1.8 0.2 4.2 0.6 5.3 1.4 3.8 1.5 4.6 0.6 4 -0.5 -0.3 -1.2 0.1 -1.4 0.7 -0.4 1 -0.8 0.9 -1.6 -0.2 -0.7 -0.9 -1.1 -1 -1.1 -0.3 0 0.6 0.4 1.4 0.9 1.7 1.2 0.8 0.2 4.6 -1.1 4.6 -0.6 0 -0.8 0.9 -0.5 2 0.3 1.1 0 2.3 -0.5 2.7 -0.7 0.4 -0.8 0.1 -0.4 -0.8 0.4 -0.8 0.1 -0.6 -0.8 0.5 -0.8 1 -1.9 1.5 -2.5 1.1 -0.6 -0.3 -1.1 -0.2 -1.1 0.4 0 0.5 0.6 1.1 1.2 1.3 0.8 0.3 0.3 1 -1.2 1.8 -1.3 0.7 -3.1 1.9 -3.8 2.7 -1.8 1.8 -4.3 1.7 -3.6 -0.2 0.4 -0.8 1.2 -1.5 2 -1.5 1.5 0 5.4 -6.9 5.4 -9.7 0 -1.2 -0.8 -1.8 -2.6 -1.9 -2.3 -0.2 -2.4 -0.1 -0.7 1.2 1.5 1.2 1.3 1.2 -1.7 0 -1.9 -0.7 -4.1 -1.1 -4.8 -0.9 -0.8 0.3 -1 -0.1 -0.6 -1.1 0.5 -1.2 0.2 -1.5 -1 -1 -0.9 0.3 -1.3 1.1 -0.9 1.7 0.4 0.6 -0.3 0.8 -1.8 0.4 -1.3 -0.3 -12.5 -1.8 -24.9 -3.3 -12.4 -1.5 -22.7 -3 -23 -3.4 -0.8 -1.1 -10 -0.7 -10 0.4 0 0.5 -0.7 0.1 -1.6 -1 -0.8 -1 -1.3 -1.3 -0.9 -0.7 0.3 0.7 0.1 2.1 -0.4 3.1 -1.7 3.2 -2 9.2 -0.5 9.2 0.8 0 1.3 0.3 1.3 0.8 -0.3 2 0.3 3.9 2.1 6.2 1.6 2 1.9 2.1 1.3 0.5 -0.6 -1.8 -0.5 -1.8 1 -0.6 0.9 0.7 1.7 2 1.7 2.7 0 1.7 1.6 1.9 2.5 0.3 0.5 -0.7 1.4 -0.4 2.7 0.8 1.5 1.3 2.2 1.5 2.5 0.6 0.4 -1 0.8 -0.9 2 0.2 0.8 0.9 2.3 1.3 3.3 1 1 -0.3 2.1 -0.1 2.4 0.4 0.4 0.6 1.2 0.8 1.9 0.5 2.1 -0.8 8.9 2.5 8.3 4.1 -0.2 0.7 0.2 1.9 1 2.6 0.8 0.7 1.2 1.9 0.9 2.8 -0.3 0.8 -0.3 1.2 0.1 0.9 0.8 -0.8 2.8 1 3.6 3.3 0.6 1.5 0.3 1.5 -2.2 0.6 -2 -0.8 -2.5 -1.4 -1.7 -1.9 0.9 -0.6 0.9 -0.8 -0.1 -0.8 -0.7 0 -1.5 0.7 -1.9 1.5 -0.4 1.3 -2.2 1.6 -9.9 1.4 -5.2 -0.1 -9.4 -0.5 -9.4 -0.9 0 -0.3 0.5 -1.1 1 -1.8 0.7 -0.9 0.7 -0.9 -0.2 -0.2 -0.7 0.6 -2.2 1 -3.5 1 -1.3 0 -2.3 0.6 -2.3 1.4 0 0.8 -0.9 1.7 -2 2.1 -1.2 0.4 -2.2 1.9 -2.6 4 -0.3 2 -1.1 3.2 -1.6 2.8 -1.3 -0.7 -0.1 6.9 1.2 7.7 0.4 0.3 1 1.5 1.4 2.6 1.4 4.6 3.5 5.3 17.1 5.9 13.5 0.5 33.4 2.3 34.5 3 0.4 0.2 5.3 0.7 11 1 5.7 0.3 13.2 1 16.7 1.5 3.6 0.6 8.9 1.2 12 1.4 15.9 1.2 0.7 1.6 -53 1.6 l-59.7 0 0 -71.5z m78.8 3 c0.2 -0.1 -0.8 -0.5 -2.2 -0.7 -1.4 -0.3 -2.3 -0.2 -2.1 0.3 0.3 0.4 -0.1 1 -0.7 1.3 -0.7 0.3 0.1 0.3 1.7 -0.1 1.7 -0.3 3.1 -0.7 3.3 -0.8z m2.2 -14.9 c0 -0.8 -0.7 -1.6 -1.5 -2 -1.3 -0.4 -1.4 -0.2 -0.5 1.4 1.3 2.3 2 2.6 2 0.6z m4.5 -2.5 c-0.3 -0.6 0.4 -1.5 1.5 -2.1 1.3 -0.7 1.8 -1.6 1.3 -2.3 -0.4 -0.7 -1.5 -3.2 -2.3 -5.6 -1.2 -3.3 -2.1 -4.5 -3.7 -4.6 -1.2 -0.1 -2 0.2 -1.8 0.6 0.3 0.4 -0.2 1.2 -1 1.9 -1.9 1.6 -1.9 3 -0.1 3 0.8 0 1.7 0.7 2 1.6 0.5 1.4 0.4 1.5 -0.9 0.4 -2.1 -1.7 -3.6 -0.2 -2.8 2.9 0.4 1.7 0.8 1.9 1.4 0.9 0.7 -1 1.1 -1.1 1.7 0 0.5 0.7 1.6 1 2.6 0.6 1.5 -0.6 1.7 -0.3 1.1 1.4 -0.4 1.4 -0.2 2.2 0.5 2.2 0.6 0 0.9 -0.4 0.5 -0.9z m-24 -57.2 c0 -1.3 0.5 -2.3 1 -2.2 0.6 0.1 1.2 -0.8 1.2 -1.9 0.2 -2.1 0.2 -2.1 -1.3 0.1 -0.9 1.2 -2 1.9 -2.5 1.6 -0.5 -0.3 -0.6 0 -0.3 0.8 0.3 0.8 0 1.8 -0.5 2.2 -1.4 0.8 -0.3 2.7 1.2 2.2 0.6 -0.2 1.2 -1.4 1.2 -2.8z m-2.5 -7.4 c0 -0.8 -0.4 -1.5 -1 -1.5 -0.5 0 -1 0.7 -1 1.5 0 0.8 0.5 1.5 1 1.5 0.6 0 1 -0.7 1 -1.5z"/>
  <path d="M122 178.3 c2.2 -0.4 8.1 -5.3 6.4 -5.3 -0.3 0 -0.1 -0.6 0.6 -1.4 0.6 -0.8 1.7 -1.4 2.3 -1.2 0.7 0.1 1 0.1 0.7 -0.1 -0.3 -0.2 -0.5 -3 -0.5 -6.2 0.1 -3.3 -0.2 -5.8 -0.5 -5.6 -1 0.6 -3.2 -6.4 -2.4 -7.7 0.5 -1 0.4 -1 -0.6 -0.1 -0.9 0.8 -2 0.9 -3.7 0.2 -1.4 -0.5 -2.8 -0.7 -3.3 -0.4 -1.2 0.8 -10 -2.6 -10.1 -3.8 0 -0.7 -0.2 -3.1 -0.4 -5.4 -0.2 -2.4 0 -4.3 0.5 -4.3 0.5 0 0.7 -0.7 0.3 -1.5 -0.3 -0.9 -0.2 -1.5 0.3 -1.4 2.2 0.4 3.1 -0.3 4.3 -3.6 0.7 -2 1.9 -3.5 2.9 -3.6 1.1 0 1.3 -0.2 0.4 -0.6 -1 -0.4 -1 -1 0.3 -2.9 4.7 -7.2 6.9 -23.1 4.3 -31.6 -0.9 -3 -0.9 -4.1 0.1 -5.1 0.9 -0.9 1.4 -0.9 2.1 0.3 0.8 1.3 1 1.3 1 -0.2 0 -2 -2.2 -3.6 -2.8 -2 -0.2 0.7 -0.8 1 -1.3 0.6 -1.2 -0.7 -4.1 -7.6 -3.4 -8.2 0.3 -0.3 0.5 0 0.5 0.7 0 0.7 0.5 0.9 1 0.6 0.6 -0.4 0.8 -1.5 0.5 -2.6 -0.4 -1 0.1 -2.9 0.9 -4.1 2.4 -3.5 2 -9.1 -0.9 -12.6 -3 -3.5 -3 -4.1 -0.7 -5.8 1.4 -1.1 1.7 -2.9 1.7 -12.8 0 -9 -0.3 -11.5 -1.3 -11.1 -0.9 0.3 -1 -0.3 -0.6 -2 0.6 -2.5 -1 -3.7 -1.8 -1.3 -0.2 0.6 -0.9 0.8 -1.6 0.4 -0.9 -0.5 -0.8 -1.3 0.4 -3.1 1.4 -2.1 1.4 -2.6 -0.1 -5.6 -1.3 -2.4 -1.4 -3.3 -0.5 -3.9 0.9 -0.6 0.9 -1.2 0 -3 -0.6 -1.2 -1 -3.1 -0.7 -4.1 0.4 -1.4 0 -1.9 -1.4 -1.9 -1.4 0 -1.9 -0.7 -1.9 -2.5 0 -2.5 0 -2.5 9.4 -2.5 7.1 0 9.7 0.4 10.6 1.5 0.7 0.8 1.8 1.5 2.6 1.5 0.8 0 1.2 1.1 1.2 2.9 -0.1 1.6 0.8 4 1.9 5.4 1 1.3 2.5 4.4 3.3 6.8 0.8 2.4 1.7 4.6 2 4.9 0.3 0.3 1.2 2 1.9 3.8 0.8 1.7 1.7 3.2 2 3.2 1.3 0 5.2 9.7 4.6 11.3 -0.4 0.8 -0.2 1.8 0.4 2.1 0.5 0.4 1.3 -0.4 1.7 -1.6 0.7 -2.2 0.7 -2.2 1.5 -0.3 0.4 1.1 0.8 32.5 0.8 69.8 l0.1 67.7 -18.7 -0.1 c-10.4 -0.1 -17.7 -0.4 -16.3 -0.6z m2.3 -97.3 c-0.3 -1.1 -0.9 -2 -1.4 -2 -1 0 -1.2 2.4 -0.2 3.3 1.3 1.3 2.1 0.7 1.6 -1.3z"/>
  <path d="M118 74.7 c0 -0.9 0.4 -1.7 0.8 -1.7 0.5 0 0.7 -1.3 0.4 -3 -0.3 -1.8 0 -3 0.7 -3 2 0 1.7 4.3 -0.5 7.4 -1.2 1.8 -1.4 1.8 -1.4 0.3z"/>
  <path d="M116.3 64.5 c-0.9 -2.5 0.4 -2.9 1.7 -0.6 0.7 1.5 0.7 2.1 0 2.1 -0.6 0 -1.3 -0.7 -1.7 -1.5z"/>
  <path d="M14 26 c0 -0.5 0.7 -1 1.5 -1 0.8 0 1.5 0.5 1.5 1 0 0.6 -0.7 1 -1.5 1 -0.8 0 -1.5 -0.4 -1.5 -1z"/>
  <path d="M77 11.7 c0 -0.7 0.8 -2.2 1.8 -3.3 2.7 -3.1 4.3 -6.4 3.2 -6.4 -2.1 0 -0.9 -1.6 1.3 -1.8 1.5 -0.1 2.4 0.4 2.4 1.3 0 0.8 -0.5 1.3 -1.1 1.2 -0.6 -0.1 -1 0.6 -1 1.5 0.1 1 -0.3 1.5 -0.9 1.1 -0.6 -0.4 -0.8 0.2 -0.5 1.5 0.5 1.7 0.2 2.2 -1.4 2.2 -1 0 -1.7 0.3 -1.5 0.8 0.3 0.4 -0.1 1.3 -0.9 2 -1.1 1 -1.4 1 -1.4 -0.1z"/>
  <path d="M73 5.5 c0 -0.8 0.5 -1.5 1 -1.5 0.6 0 1 0.7 1 1.5 0 0.8 -0.4 1.5 -1 1.5 -0.5 0 -1 -0.7 -1 -1.5z"/>
  <path d="M102.5 3.1 c-0.6 -1.1 0.9 -2.3 1.9 -1.4 0.9 0.9 0.7 2.3 -0.3 2.3 -0.6 0 -1.2 -0.4 -1.6 -0.9z"/>
 </g>
 <g fill="none" stroke="#d9ab5a" stroke-width="1">
  <path d="M89.2 118.6 c0.2 -2.8 -0.2 -4.1 -1.2 -4.3 -1.3 -0.4 -1.3 -0.3 0 0.7 1 0.8 1.1 1 0.2 0.8 -2.3 -0.6 -1.3 -2.3 1.3 -2.3 2.9 -0.1 3.3 2.5 0.9 6.5 -1.4 2.5 -1.4 2.5 -1.2 -1.4z"/>
  <path d="M73.8 111.4 c0.6 -0.3 1 -0.9 0.7 -1.3 -0.2 -0.5 0.7 -0.6 2.1 -0.3 3 0.5 2.8 0.7 -1.1 1.5 -1.6 0.4 -2.4 0.4 -1.7 0.1z"/>
  <path d="M79 95 c-0.9 -1.6 -0.8 -1.8 0.5 -1.4 0.8 0.4 1.5 1.2 1.5 2 0 2 -0.7 1.7 -2 -0.6z"/>
  <path d="M84.5 91.8 c0.6 -1.7 0.4 -2 -1.1 -1.4 -1 0.4 -2.1 0.1 -2.6 -0.6 -0.6 -1.1 -1 -1 -1.7 0 -0.6 1 -1 0.8 -1.4 -0.9 -0.8 -3.1 0.7 -4.6 2.8 -2.9 1.3 1.1 1.4 1 0.9 -0.4 -0.5 -1.3 -1.3 -1.6 -3.1 -1.1 l-2.5 0.6 2.6 -2.7 c1.4 -1.5 2.3 -3.1 2.1 -3.4 -0.2 -0.4 0.6 -0.6 1.8 -0.5 1.6 0.1 2.5 1.3 3.7 4.6 0.8 2.4 1.9 4.9 2.3 5.6 0.5 0.7 0 1.6 -1.3 2.3 -1.1 0.6 -1.8 1.5 -1.5 2.1 0.4 0.5 0.1 0.9 -0.5 0.9 -0.7 0 -0.9 -0.8 -0.5 -2.2z"/>
  <path d="M122 86.6 c0 -1 0.4 -1.5 0.9 -1.2 0.5 0.4 1.1 0.1 1.3 -0.6 0.6 -1.6 2.8 0 2.8 2 0 1.4 -0.2 1.5 -0.9 0.3 -0.8 -1.2 -1.2 -1.2 -2.5 -0.2 -1.4 1.1 -1.6 1.1 -1.6 -0.3z"/>
  <path d="M122.7 82.3 c-1 -0.9 -0.8 -3.3 0.2 -3.3 0.5 0 1.1 0.9 1.4 2 0.5 2 -0.3 2.6 -1.6 1.3z"/>
  <path d="M119.5 77 c-0.3 -1.1 -0.3 -2.4 0 -3 0.3 -0.5 0.1 -1 -0.6 -1 -1.6 0 -5.9 -4.7 -5.9 -6.5 0 -0.7 -0.3 -1.5 -0.7 -1.7 -0.5 -0.2 -2.4 -2.1 -4.3 -4.2 -1.9 -2.2 -2.9 -3.6 -2.2 -3.2 0.6 0.4 1.2 0.4 1.2 -0.1 0 -0.4 -1.5 -1.5 -3.3 -2.3 -1.7 -0.8 -3.1 -2.1 -3 -2.7 0.2 -0.7 -0.6 -1.7 -1.7 -2.3 -3.7 -2 -4.2 -4.5 -2.5 -11.9 1.3 -5.2 1.4 -7.3 0.6 -8.9 -1.2 -2.2 0.3 -7.2 2.1 -7.2 0.5 0 0.6 -0.4 0.3 -1 -0.3 -0.5 0 -1.1 0.7 -1.1 0.7 -0.1 1.9 -0.2 2.7 -0.3 0.9 0 1.4 -1.4 1.5 -3.5 0.1 -2.6 -0.4 -3.5 -2.1 -4.2 -1.3 -0.5 -2.3 -1.3 -2.3 -1.9 0 -0.6 -0.4 -0.8 -1 -0.5 -0.5 0.3 -1 0.2 -1 -0.4 0 -0.5 0.3 -1.1 0.8 -1.4 0.4 -0.2 0.1 -0.2 -0.6 0 -2.1 0.5 -5.3 -1.6 -4.6 -3 0.4 -0.7 0.4 -0.9 -0.1 -0.5 -1.1 1 -4.5 -1 -4.5 -2.7 0 -1.2 2.1 -1.5 12 -1.5 l12 0 0 2.5 c0 1.8 0.5 2.5 1.9 2.5 1.4 0 1.8 0.5 1.4 1.9 -0.3 1 0.1 2.9 0.7 4.1 0.9 1.8 0.9 2.4 0 3 -0.9 0.6 -0.8 1.5 0.5 3.9 1.5 3 1.5 3.5 0.1 5.6 -1.2 1.8 -1.3 2.6 -0.4 3.1 0.7 0.4 1.4 0.2 1.6 -0.4 0.8 -2.4 2.4 -1.2 1.8 1.3 -0.4 1.7 -0.3 2.3 0.6 2 1 -0.4 1.3 2.1 1.3 11.1 0 9.9 -0.3 11.7 -1.7 12.8 -2.3 1.7 -2.3 2.3 0.7 5.8 2.9 3.5 3.3 9.1 0.9 12.6 -0.8 1.2 -1.3 3.1 -0.9 4.1 0.3 1.1 0.1 2.2 -0.4 2.5 -0.5 0.4 -1.2 -0.3 -1.6 -1.4z m1.8 -8.7 c-0.3 -0.7 -0.9 -1.3 -1.4 -1.3 -1.1 0 -1.2 4.4 -0.2 5.4 0.9 0.9 2.2 -2.5 1.6 -4.1z m-3.3 -4.4 c-0.7 -1.1 -1.4 -1.8 -1.7 -1.5 -0.8 0.8 0.5 3.6 1.7 3.6 0.7 0 0.7 -0.6 0 -2.1z m-13 -60.7 c0 -1.3 -1.2 -2.2 -2.2 -1.6 -1 0.6 -0.1 2.4 1.3 2.4 0.5 0 0.9 -0.4 0.9 -0.8z"/>
  <path d="M59.8 35.2 c-0.4 -1.2 -0.2 -2 0.2 -1.7 0.5 0.3 1.6 -0.5 2.4 -1.7 0.9 -1.2 1.6 -1.7 1.6 -1.1 0 0.7 -0.5 1.5 -1.1 1.8 -0.6 0.4 -1.4 1.6 -1.8 2.8 -0.8 2 -0.8 2 -1.3 -0.1z"/>
  <path d="M57 28.5 c0 -0.8 0.5 -1.5 1 -1.5 0.6 0 1 0.7 1 1.5 0 0.8 -0.4 1.5 -1 1.5 -0.5 0 -1 -0.7 -1 -1.5z"/>
  <path d="M64.1 25.6 c-0.7 -0.8 -1 -2 -0.6 -2.6 0.3 -0.5 0.1 -1 -0.4 -1 -0.6 0 -1.1 -0.6 -1.1 -1.4 0 -0.8 -0.6 -1.7 -1.2 -1.9 -1 -0.4 -1 -0.8 -0.2 -1.4 0.7 -0.4 2 -2.7 3 -5 1.4 -3.3 2.4 -4.3 5 -4.8 2.2 -0.4 3.1 -1.1 3 -2.3 0 -1.1 0.7 -1.8 2.2 -2 1.2 -0.2 2.2 -0.7 2.2 -1.2 0 -1.4 4.6 -1.7 5.9 -0.3 0.7 0.7 1.7 1.1 2.3 0.7 0.6 -0.4 0.6 0.2 -0.1 1.5 -1.4 2.5 -2.3 2.8 -1.4 0.4 0.4 -1.1 0.3 -1.4 -0.5 -0.9 -0.7 0.4 -1.2 1.3 -1.2 2.1 0 0.7 -0.6 1.6 -1.2 1.8 -1 0.4 -0.9 0.8 0.2 1.7 1.3 0.9 1.2 1 -0.5 0.8 -1.5 -0.2 -2.1 0.4 -2.3 2.2 -0.2 1.4 -0.8 3 -1.4 3.5 -0.8 0.7 -0.9 0.6 -0.5 -0.1 0.4 -0.7 0 -1.5 -0.9 -1.8 -1 -0.4 -1.3 -0.2 -0.8 0.6 0.5 0.7 0.2 0.9 -0.9 0.5 -1.1 -0.4 -1.4 -0.2 -1.1 0.7 1 2.5 -1.3 2.6 -2.4 0.1 -2.1 -4.6 -3.7 -3 -3.8 3.6 -0.1 3.8 0.2 5.6 0.7 4.8 0.5 -0.8 0.9 -0.9 0.9 -0.4 0 0.6 -0.4 1.6 -0.9 2.3 -0.6 1 -1 1 -2 -0.2z m10.9 -20.1 c0 -0.8 -0.4 -1.5 -1 -1.5 -0.5 0 -1 0.7 -1 1.5 0 0.8 0.5 1.5 1 1.5 0.6 0 1 -0.7 1 -1.5z"/>
 </g>
 <g fill="none" stroke="#cdab71" stroke-width="1">
  <path d="M129.2 169.8 c1.4 -1.1 1.5 -2.2 0.7 -6.3 -1 -5.3 -1.1 -5.9 -2.4 -8.8 -0.4 -1 -0.5 -2 -0.2 -2.3 0.8 -0.8 3.9 7.8 4.2 12 0.4 4 -0.7 6.6 -2.8 6.6 -0.6 0 -0.4 -0.6 0.5 -1.2z"/>
  <path d="M123.3 152.3 c-0.7 -0.2 -1.3 -0.9 -1.3 -1.5 0 -0.7 0.5 -0.7 1.3 0.1 0.8 0.6 1.7 0.8 2 0.4 0.4 -0.3 0.7 -0.1 0.7 0.5 0 1.3 -0.7 1.4 -2.7 0.5z"/>
  <path d="M115.4 151.1 c-1.7 -0.4 -3.6 -1.1 -4.2 -1.5 -1.4 -0.9 -3.6 -11.6 -2.5 -12.7 0.4 -0.4 0.9 0.3 0.9 1.7 0.5 7.9 1.2 9.2 6.4 10.9 7 2.3 6.6 3.3 -0.6 1.6z"/>
  <path d="M59.3 147.3 c1.5 -0.2 3.7 -0.2 5 0 1.2 0.2 0 0.4 -2.8 0.4 -2.7 0 -3.8 -0.2 -2.2 -0.4z"/>
  <path d="M31.7 146.1 c0.4 -0.4 4.6 -0.4 9.3 0 l8.5 0.6 -9.3 0 c-5.1 0 -9 -0.3 -8.5 -0.6z"/>
  <path d="M111.7 132.9 c1.2 -1.2 2.5 -2 2.8 -1.7 0.3 0.3 -0.7 1.3 -2.2 2.3 l-2.8 1.7 2.2 -2.3z"/>
  <path d="M115.1 129.5 c0 -0.5 0.6 -1.9 1.4 -2.9 0.8 -1.1 1.5 -1.5 1.5 -1 0 0.6 -0.7 1.9 -1.5 3 -0.8 1 -1.4 1.5 -1.4 0.9z"/>
  <path d="M119.7 120 c0.3 -1.1 0.9 -2 1.4 -2 1.1 0 1.1 0.3 0.3 2.4 -0.9 2.3 -2.3 2 -1.7 -0.4z"/>
  <path d="M81 115.1 c0 -0.5 0.6 -1.1 1.3 -1.3 1.7 -0.7 3.8 0.2 3.1 1.3 -0.7 1.2 -4.4 1.2 -4.4 0z"/>
  <path d="M71.8 114.3 c-2.1 -0.2 -3.8 -0.7 -3.8 -1.1 0 -1 8.3 -0.2 9.5 0.9 0.5 0.6 0.3 0.8 -0.5 0.7 -0.8 -0.1 -3.2 -0.3 -5.2 -0.5z"/>
  <path d="M59 112 c-1.2 -0.8 -1.1 -1 0.7 -1 1.2 0 2.5 0.5 2.8 1 0.8 1.3 -1.5 1.3 -3.5 0z"/>
  <path d="M50.5 111 c-1.9 -0.8 -1.9 -0.9 0.2 -0.9 1.2 -0.1 2.5 0.4 2.8 0.9 0.7 1.2 -0.2 1.2 -3 0z"/>
  <path d="M123 102.6 c0 -4.1 0.5 -7.8 1 -8.1 0.6 -0.4 1 2.3 1 7.4 0 4.7 -0.4 8.1 -1 8.1 -0.6 0 -1 -3.1 -1 -7.4z"/>
  <path d="M25 108 l-4.5 -0.7 4.5 0 c2.5 0 5.9 0.3 7.5 0.7 l3 0.8 -3 -0.1 c-1.6 0 -5 -0.3 -7.5 -0.7z"/>
  <path d="M76 79.1 c0 -1.1 0.5 -2.3 1 -2.6 0.6 -0.3 1 0.1 1 0.9 0 0.9 0 1.9 0.1 2.3 0 0.4 -0.4 0.9 -1 1.1 -0.6 0.2 -1.1 -0.5 -1.1 -1.7z"/>
  <path d="M43 75.1 c-1.9 -0.5 -2.1 -0.8 -1 -1.3 0.9 -0.3 2.4 0 3.5 0.8 2 1.5 1.5 1.6 -2.5 0.5z"/>
 </g>
 <g fill="none" stroke="#e1bc79" stroke-width="1">
  <path d="M118.2 78.3 c-1.6 -4.6 -10.1 -16.4 -17.1 -23.5 -3.5 -3.7 -6.8 -7.3 -7.2 -8 -0.4 -0.7 0.2 -4.6 1.2 -8.7 1.7 -6.6 1.7 -7.5 0.4 -8.5 -1.4 -1 -1.3 -1.6 0.5 -5.1 1.1 -2.1 2 -3.3 2 -2.4 0 0.8 -0.7 2.5 -1.6 3.7 -0.8 1.2 -1.1 2.2 -0.5 2.2 1.9 0 2.2 4.1 0.7 10.1 -0.9 3.3 -1.6 6.6 -1.6 7.2 0 0.7 3 4.4 6.6 8.2 9.4 10.1 19.7 25.5 18 27.2 -0.2 0.2 -0.8 -0.9 -1.4 -2.4z"/>
  <path d="M101.3 18.3 c2.4 -0.6 2.1 -4.1 -0.5 -6.4 l-2.3 -2 2.8 1.7 c3.6 2.2 4 7.5 0.5 7.3 -1.7 -0.1 -1.9 -0.2 -0.5 -0.6z"/>
  <path d="M94.3 7.7 c-1.8 -1.2 -3.3 -2.6 -3.3 -3 0 -0.4 1.6 0.4 3.5 1.9 1.9 1.4 3.5 2.8 3.5 3 0 0.6 -0.2 0.5 -3.7 -1.9z"/>
 </g>
</svg>